<svg xmlns="http://www.w3.org/2000/svg" width="48" height="48" viewBox="0 0 48 48" fill="none">
	<path
		d="M36.4954 12.3055C34.1302 11.213 31.6332 10.4378 29.0684 10C28.7174 10.6331 28.3998 11.2844 28.117 11.9513C25.3849 11.5359 22.6065 11.5359 19.8744 11.9513C19.5914 11.2845 19.2739 10.6331 18.923 10C16.3565 10.4415 13.8579 11.2185 11.4903 12.3113C6.78997 19.3279 5.51578 26.1702 6.15287 32.9154C8.9055 34.9674 11.9865 36.528 15.2619 37.5294C15.9994 36.5285 16.652 35.4667 17.2128 34.3553C16.1477 33.9539 15.1196 33.4587 14.1406 32.8754C14.3983 32.6869 14.6503 32.4926 14.8938 32.304C17.7426 33.6558 20.8519 34.3566 23.9999 34.3566C27.148 34.3566 30.2573 33.6558 33.1061 32.304C33.3524 32.5069 33.6044 32.7011 33.8593 32.8754C32.8783 33.4597 31.8484 33.9558 30.7814 34.3582C31.3415 35.4691 31.9942 36.53 32.7323 37.5294C36.0105 36.532 39.0939 34.9722 41.847 32.9183C42.5945 25.096 40.57 18.3165 36.4954 12.3055ZM18.0198 28.7672C16.2444 28.7672 14.7777 27.1416 14.7777 25.1417C14.7777 23.1419 16.1934 21.502 18.0141 21.502C19.8348 21.502 21.2902 23.1419 21.259 25.1417C21.2279 27.1416 19.8291 28.7672 18.0198 28.7672ZM29.9801 28.7672C28.2019 28.7672 26.7408 27.1416 26.7408 25.1417C26.7408 23.1419 28.1566 21.502 29.9801 21.502C31.8036 21.502 33.2477 23.1419 33.2165 25.1417C33.1854 27.1416 31.7894 28.7672 29.9801 28.7672Z"
		fill="#5865F2" />
</svg>