<svg xmlns="http://www.w3.org/2000/svg" width="48" height="48" viewBox="0 0 48 48" fill="none">
	<path
		d="M41.2472 14.9355C40.8324 13.3856 39.6143 12.1676 38.0645 11.7527C35.2582 11 23.9999 11 23.9999 11C23.9999 11 12.7418 11 9.93545 11.7527C8.38558 12.1676 7.1676 13.3856 6.75272 14.9355C6 17.7418 6 23.6006 6 23.6006C6 23.6006 6 29.4594 6.75272 32.2658C7.1676 33.8156 8.38558 35.0336 9.93545 35.4484C12.7418 36.2012 23.9999 36.2012 23.9999 36.2012C23.9999 36.2012 35.2582 36.2012 38.0645 35.4484C39.6143 35.0336 40.8324 33.8156 41.2472 32.2658C42 29.4594 42 23.6006 42 23.6006C42 23.6006 41.997 17.7418 41.2472 14.9355Z"
		fill="#FF0000" />
	<path d="M20.3975 29.0019L29.7501 23.6026L20.3975 18.2031V29.0019Z" fill="white" />
</svg>