<svg xmlns="http://www.w3.org/2000/svg" width="48" height="48" viewBox="0 0 48 48" fill="none">
	<path
		d="M40.0003 24.7174C40.0003 23.6412 39.9049 22.6195 39.7414 21.625H24.3477V27.7689H33.1616C32.7665 29.7851 31.6086 31.4879 29.8921 32.6458V36.7327H35.1505C38.2293 33.8855 40.0003 29.6897 40.0003 24.7174Z"
		fill="#4285F4" />
	<path
		d="M24.3488 40.6965C28.7626 40.6965 32.4544 39.2252 35.1517 36.7323L29.8933 32.6454C28.422 33.6263 26.5557 34.2257 24.3488 34.2257C20.0849 34.2257 16.4748 31.3512 15.1807 27.4688H9.75879V31.6782C12.4425 37.0183 17.9597 40.6965 24.3488 40.6965Z"
		fill="#34A853" />
	<path
		d="M15.1792 27.4721C14.8386 26.4913 14.6615 25.4423 14.6615 24.3525C14.6615 23.2627 14.8523 22.2137 15.1792 21.2329V17.0234H9.75734C8.64027 19.2303 8 21.7097 8 24.3525C8 26.9953 8.64027 29.4747 9.75734 31.6816L15.1792 27.4721Z"
		fill="#FBBC05" />
	<path
		d="M24.3488 14.4708C26.76 14.4708 28.9124 15.3018 30.6153 16.9229L35.2743 12.2639C32.4544 9.62111 28.7626 8 24.3488 8C17.9597 8 12.4425 11.6782 9.75879 17.0183L15.1807 21.2277C16.4748 17.3452 20.0849 14.4708 24.3488 14.4708Z"
		fill="#EA4335" />
</svg>