<svg width="512" height="512" viewBox="0 0 512 512" fill="none" xmlns="http://www.w3.org/2000/svg">
    <path d="M511.85 0H0.15C0.0671573 0 0 0.0671573 0 0.15V511.85C0 511.933 0.0671573 512 0.15 512H511.85C511.933 512 512 511.933 512 511.85V0.15C512 0.0671573 511.933 0 511.85 0Z" fill="transparent"/>
    <path opacity="0.999" fill-rule="evenodd" clip-rule="evenodd" d="M291.832 81.0074C297.484 80.8509 301.761 83.1726 304.664 87.9723C305.669 89.9818 306.623 92.0172 307.527 94.0786C311.279 102.983 315.033 111.888 318.785 120.793C320.897 125.572 323.028 130.342 325.177 135.105C326.921 138.341 328.701 141.553 330.52 144.741C332.088 147.133 334.298 148.516 337.151 148.892C370.661 153.447 404.15 158.154 437.618 163.012C439.385 163.346 441.007 164.014 442.484 165.016C443.962 166.415 444.359 168.084 443.677 170.025C438.046 184.851 432.321 199.639 426.503 214.39C423.711 221.651 420.977 228.934 418.298 236.239C416.049 241.558 412.025 244.436 406.228 244.874C392.549 245.567 378.873 246.33 365.202 247.164C353.095 247.856 341.011 248.81 328.946 250.026C322.82 250.669 316.714 251.465 310.627 252.411C297.449 254.825 286.302 260.884 277.186 270.587C263.492 285.719 257.418 303.529 258.963 324.017C259.817 334.401 263.028 343.973 268.599 352.735C276.764 364.255 287.91 370.822 302.041 372.437C312.18 373.186 321.435 370.705 329.805 364.995C337.569 359.349 342.133 351.732 343.496 342.144C344.769 334.192 342.861 327.132 337.772 320.963C333.363 316.228 327.94 314.336 321.504 315.287C318.85 315.746 316.465 316.796 314.348 318.435C310.883 321.562 310.009 325.298 311.725 329.646C312.884 332.201 314.618 334.284 316.925 335.895C319.193 338.014 319.814 340.542 318.785 343.48C317.884 345.272 316.532 346.623 314.73 347.535C312.103 348.61 309.401 348.834 306.62 348.203C300.001 346.827 295.023 343.218 291.689 337.374C286.724 327.853 286.216 318.09 290.162 308.083C294.113 298.821 300.712 292.19 309.96 288.19C321.283 283.637 332.86 282.874 344.689 285.9C358.017 289.739 367.987 297.737 374.6 309.896C384.107 328.386 385.316 347.404 378.225 366.951C370.339 387.176 356.902 402.521 337.915 412.986C315.599 425.076 291.875 429.241 266.739 425.485C246.332 422.406 227.567 415.186 210.447 403.827C198.128 395.771 187.362 385.96 178.151 374.393C168.214 361.294 160.803 346.824 155.92 330.981C151.417 316.304 148.809 301.292 148.097 285.948C147.841 279.747 147.809 273.546 148.001 267.343C148.107 264.792 148.282 262.247 148.526 259.71C148.453 258.781 147.944 258.399 146.999 258.565C132.134 259.301 117.266 259.969 102.395 260.569C99.9268 260.598 97.4938 260.327 95.0964 259.758C92.6668 258.951 90.9336 257.376 89.8966 255.035C88.5621 251.289 87.6399 247.441 87.1297 243.491C81.9379 211.385 76.8493 179.264 71.8641 147.126C70.5296 138.389 69.2574 129.643 68.0477 120.889C67.9841 119.712 67.9841 118.535 68.0477 117.359C68.12 114.618 69.5034 113.043 72.1981 112.636C74.8715 112.439 77.543 112.471 80.2125 112.731C90.1483 113.83 100.071 115.039 109.98 116.357C141.418 120.598 172.839 124.955 204.245 129.428C205.164 129.622 205.991 129.431 206.726 128.855C225.132 113.233 245.168 99.9714 266.834 89.0695C272.367 86.356 278.092 84.1297 284.008 82.3909C286.593 81.7112 289.2 81.25 291.832 81.0074Z" fill="#1CAD76"/>
</svg>
