<svg width="500" height="500" viewBox="0 0 500 500" fill="none" xmlns="http://www.w3.org/2000/svg">
<path d="M286.88 350.613C271.286 339.789 267.695 319.62 268.255 301.479C268.348 298.451 268.006 295.26 269.438 292.599C270.871 289.939 274.226 288.113 276.941 289.38C279.193 290.432 280.181 293.044 281.445 295.203C283.127 298.076 285.628 300.45 288.567 301.964C290.498 302.959 292.885 303.563 294.786 302.508C297.393 301.059 297.69 297.45 297.662 294.438C297.609 288.825 297.558 283.212 297.506 277.601C297.478 274.59 297.46 271.515 298.388 268.654C299.316 265.793 301.378 263.132 304.24 262.321C307.103 261.51 310.65 263.151 311.264 266.097C311.52 267.323 311.274 268.597 311.361 269.846C311.448 271.096 312.035 272.477 313.223 272.822C314.426 273.172 315.629 272.314 316.526 271.43C319.625 268.38 321.722 264.457 323.682 260.555C325.642 256.654 327.543 252.66 330.353 249.335C333.163 246.01 337.056 243.37 341.368 243.113C345.681 242.856 350.283 245.504 351.386 249.734C352.492 253.976 350.028 258.291 347.343 261.736C343.36 266.847 338.643 271.37 333.388 275.119C332.441 275.796 331.414 276.527 331.055 277.643C330.407 279.653 332.315 281.641 334.3 282.295C336.547 283.036 338.982 282.795 341.331 283.065C343.68 283.334 346.227 284.362 347.122 286.579C348.365 289.653 345.8 292.887 343.274 295.008C338.215 299.255 332.433 302.615 326.262 304.897C324.049 305.714 321.72 306.433 319.938 307.994C318.156 309.557 317.086 312.266 318.172 314.383C319.258 316.503 322.031 317.174 324.35 316.736C326.668 316.299 328.742 315.033 330.951 314.192C335.085 312.617 340.43 312.886 343.092 316.455C344.841 318.801 345.005 322.074 344.132 324.879C343.26 327.684 341.48 330.103 339.589 332.335C332.98 340.137 324.507 346.428 314.917 349.786C305.324 353.145 296.432 354.073 286.88 350.613Z" fill="#F5F5F5"/>
<path d="M291.528 339.228C294.17 330.066 297.899 320.263 302.151 310.144C303.223 307.619 304.283 305.123 305.327 302.663C306.375 300.21 307.414 297.778 308.578 295.461C310.885 290.817 313.458 286.528 316.027 282.534C318.595 278.537 321.178 274.837 323.618 271.395C326.067 267.957 328.409 264.796 330.667 262.006C335.167 256.406 339.324 252.328 342.291 249.645C343.772 248.298 344.955 247.291 345.767 246.619C346.157 246.3 346.463 246.049 346.694 245.861C346.905 245.693 347.016 245.611 347.022 245.618C347.029 245.626 346.93 245.723 346.731 245.905C346.509 246.104 346.214 246.369 345.839 246.705C345.052 247.404 343.892 248.437 342.435 249.806C339.517 252.535 335.418 256.642 330.97 262.256C328.738 265.054 326.419 268.221 323.991 271.666C321.569 275.117 319.004 278.821 316.454 282.815C313.904 286.808 311.351 291.087 309.063 295.708C307.909 298.013 306.882 300.425 305.833 302.885C304.79 305.343 303.732 307.838 302.661 310.363C298.413 320.474 294.679 330.248 292.017 339.375" fill="#E0E0E0"/>
<path d="M308.737 295.439C308.7 295.445 308.596 294.988 308.439 294.155C308.278 293.323 308.086 292.113 307.87 290.613C307.435 287.616 306.976 283.456 306.487 278.869C305.998 274.278 305.481 270.138 305.002 267.156C304.766 265.664 304.564 264.458 304.413 263.627C304.267 262.794 304.203 262.329 304.241 262.32C304.278 262.312 304.412 262.76 304.623 263.581C304.839 264.4 305.101 265.598 305.386 267.086C305.967 270.061 306.548 274.212 307.037 278.806C307.508 283.335 307.934 287.431 308.259 290.561C308.415 291.974 308.547 293.165 308.653 294.121C308.742 294.964 308.775 295.433 308.737 295.439Z" fill="#E0E0E0"/>
<path d="M347.432 288.086C347.433 288.124 346.882 288.19 345.888 288.276C344.895 288.367 343.457 288.492 341.686 288.703C338.141 289.096 333.263 289.811 327.916 290.836C322.569 291.87 317.77 293.012 314.323 293.938C312.595 294.389 311.207 294.791 310.246 295.064C309.286 295.34 308.749 295.476 308.736 295.439C308.724 295.402 309.239 295.197 310.181 294.855C311.124 294.519 312.499 294.057 314.218 293.555C317.648 292.529 322.45 291.322 327.813 290.284C333.176 289.257 338.081 288.601 341.648 288.308C343.43 288.147 344.877 288.082 345.877 288.058C346.877 288.039 347.43 288.046 347.432 288.086Z" fill="#E0E0E0"/>
<path d="M292.002 338.514C291.984 338.522 291.893 338.36 291.735 338.043C291.555 337.665 291.335 337.203 291.069 336.644C290.496 335.427 289.712 333.644 288.773 331.428C286.892 326.998 284.485 320.798 281.923 313.92C279.358 307.039 277.013 300.824 275.227 296.362C274.352 294.193 273.631 292.409 273.096 291.082C272.867 290.506 272.679 290.032 272.524 289.642C272.399 289.311 272.341 289.133 272.359 289.124C272.377 289.117 272.468 289.279 272.626 289.597C272.806 289.975 273.026 290.436 273.292 290.995C273.865 292.212 274.649 293.995 275.588 296.21C277.469 300.64 279.876 306.84 282.439 313.721C285.003 320.6 287.348 326.814 289.134 331.277C290.01 333.445 290.73 335.23 291.265 336.556C291.494 337.132 291.682 337.607 291.837 337.997C291.962 338.328 292.02 338.506 292.002 338.514Z" fill="#E0E0E0"/>
<path d="M343.401 321.776C343.406 321.795 343.23 321.867 342.891 321.988C342.489 322.124 341.996 322.291 341.398 322.493C340.019 322.945 338.158 323.554 335.894 324.295C331.247 325.818 324.852 327.995 317.79 330.409C310.726 332.826 304.305 334.945 299.625 336.372C297.285 337.086 295.386 337.645 294.066 338.004C293.456 338.166 292.953 338.299 292.543 338.409C292.193 338.496 292.006 338.532 292.001 338.513C291.996 338.494 292.172 338.422 292.511 338.3C292.912 338.165 293.405 337.998 294.004 337.796C295.383 337.344 297.243 336.735 299.507 335.994C304.154 334.472 310.549 332.294 317.614 329.879C324.676 327.463 331.096 325.344 335.776 323.917C338.116 323.203 340.015 322.644 341.336 322.285C341.946 322.123 342.449 321.988 342.858 321.88C343.209 321.794 343.395 321.758 343.401 321.776Z" fill="#E0E0E0"/>
<path d="M54.055 93.852C54.055 93.852 44.802 96.377 52.755 116.33C60.709 136.283 66.568 146.339 66.568 146.339C66.568 146.339 67.882 150.922 64.095 151.263C60.309 151.605 52.232 149.537 50.151 153.939C47.992 158.505 51.011 163.28 57.607 167.835C64.203 172.39 78.288 182.901 79.558 183.856C80.805 184.794 81.94 186.975 79.398 187.621C76.856 188.267 58.238 188.482 58.869 197.31C59.5 206.138 79.961 215.809 82.177 216.909C84.393 218.009 84.853 219.034 84.548 220.279C84.244 221.523 77.979 221.006 72.686 221.284C67.393 221.562 61.305 222.812 62.096 227.875C62.887 232.938 74.466 244.495 104.647 250.304L118.808 252.08L127.65 240.797C145.102 215.497 145.259 199.138 142.273 194.973C139.288 190.808 134.069 194.184 130.1 197.696C126.131 201.208 122.026 205.969 120.936 205.295C119.846 204.621 119.455 203.568 120.265 201.229C121.074 198.891 128.887 177.651 123.148 170.913C117.409 164.175 103.981 177.073 101.715 178.394C99.449 179.715 98.73 177.364 98.962 175.821C99.198 174.249 101.875 156.88 103.386 149.008C104.897 141.136 103.702 135.614 98.962 133.871C94.392 132.191 90.081 139.327 87.141 141.737C84.201 144.147 81.926 139.958 81.926 139.958C81.926 139.958 79.055 128.679 70.74 108.874C62.425 89.069 53.869 93.914 53.869 93.914" fill="#EBEBEB"/>
<path d="M119.234 255.491C113.185 240.922 102.868 214.848 93.895 192.507C84.925 170.174 76.784 149.962 70.81 135.364C67.82 128.081 65.399 122.181 63.716 118.083C62.885 116.055 62.238 114.475 61.791 113.383C61.581 112.857 61.418 112.449 61.3 112.156C61.192 111.879 61.147 111.732 61.147 111.732C61.147 111.732 61.22 111.867 61.342 112.138C61.469 112.427 61.645 112.829 61.873 113.348C62.338 114.433 63.012 116.003 63.875 118.016C65.609 122.072 68.077 127.959 71.099 135.244C77.148 149.813 85.336 170.008 94.306 192.341C103.28 214.681 113.549 240.773 119.524 255.371" fill="#E0E0E0"/>
<path d="M61.333 157.287C61.346 157.259 61.689 157.392 62.298 157.655C62.909 157.915 63.78 158.318 64.852 158.825C66.993 159.844 69.915 161.327 73.11 163.021C76.254 164.703 79.097 166.225 81.273 167.388C82.256 167.906 83.086 168.344 83.753 168.695C84.34 169.001 84.659 169.184 84.647 169.211C84.634 169.239 84.291 169.109 83.679 168.85C83.069 168.587 82.197 168.185 81.131 167.666C78.999 166.625 76.097 165.105 72.903 163.411C69.748 161.752 66.895 160.252 64.713 159.104C63.726 158.59 62.894 158.157 62.224 157.809C61.638 157.499 61.32 157.314 61.333 157.287Z" fill="#E0E0E0"/>
<path d="M85.701 168.393C85.59 168.341 88.382 162.182 91.935 154.639C95.489 147.093 98.46 141.021 98.57 141.073C98.681 141.125 95.89 147.283 92.336 154.828C88.783 162.372 85.812 168.446 85.701 168.393Z" fill="#E0E0E0"/>
<path d="M97.932 203.316C97.91 203.295 98.146 203.003 98.59 202.492C99.098 201.917 99.733 201.198 100.486 200.346C102.084 198.532 104.281 196.017 106.602 193.154C108.931 190.295 110.949 187.634 112.394 185.696C113.075 184.784 113.649 184.016 114.108 183.402C114.516 182.862 114.754 182.572 114.779 182.589C114.804 182.607 114.615 182.93 114.25 183.501C113.885 184.071 113.342 184.887 112.648 185.88C111.266 187.868 109.282 190.567 106.946 193.434C104.618 196.306 102.377 198.795 100.717 200.558C99.883 201.436 99.2 202.139 98.715 202.611C98.232 203.085 97.954 203.337 97.932 203.316Z" fill="#E0E0E0"/>
<path d="M73.68 198.121C73.686 198.091 74.031 198.13 74.649 198.227C75.359 198.35 76.23 198.501 77.258 198.679C79.458 199.08 82.49 199.663 85.834 200.335C89.179 201.007 92.202 201.639 94.386 202.119C95.403 202.352 96.265 202.549 96.968 202.709C97.575 202.858 97.909 202.955 97.903 202.985C97.897 203.015 97.552 202.976 96.934 202.878C96.224 202.755 95.353 202.604 94.325 202.426C92.125 202.025 89.093 201.441 85.748 200.77C82.404 200.098 79.381 199.466 77.198 198.986C76.181 198.754 75.318 198.556 74.616 198.396C74.007 198.248 73.674 198.151 73.68 198.121Z" fill="#E0E0E0"/>
<path d="M80.561 230.323C80.567 230.293 81.007 230.347 81.799 230.472C82.671 230.62 83.795 230.811 85.145 231.039C87.967 231.537 91.859 232.255 96.153 233.075C100.448 233.895 104.332 234.662 107.138 235.238C108.477 235.523 109.593 235.76 110.458 235.944C111.24 236.12 111.669 236.232 111.664 236.262C111.658 236.292 111.218 236.238 110.426 236.114C109.554 235.966 108.43 235.776 107.08 235.547C104.258 235.049 100.365 234.331 96.07 233.511C91.776 232.691 87.893 231.925 85.086 231.348C83.747 231.063 82.631 230.826 81.767 230.643C80.985 230.465 80.555 230.353 80.561 230.323Z" fill="#E0E0E0"/>
<path d="M110.96 235.91C110.937 235.89 111.226 235.512 111.767 234.846C112.362 234.122 113.138 233.177 114.073 232.038C116.017 229.665 118.69 226.378 121.538 222.665C124.393 218.956 126.887 215.531 128.676 213.039C129.536 211.843 130.25 210.85 130.797 210.089C131.301 209.394 131.591 209.018 131.617 209.035C131.642 209.052 131.4 209.461 130.94 210.186C130.48 210.911 129.798 211.95 128.933 213.219C127.208 215.76 124.749 219.22 121.889 222.936C119.036 226.655 116.32 229.917 114.312 232.241C113.305 233.4 112.481 234.33 111.897 234.96C111.316 235.591 110.983 235.93 110.96 235.91Z" fill="#E0E0E0"/>
<path d="M420.538 142.406H344.71V221.45H420.538V142.406Z" fill="#E0E0E0"/>
<path d="M415.403 142.406H339.575V221.45H415.403V142.406Z" fill="#FAFAFA"/>
<path d="M415.427 221.474H339.552V142.383H415.427V221.474ZM339.599 221.427H415.38V142.43H339.599V221.427Z" fill="#E0E0E0"/>
<path d="M405.209 153.032H349.768V210.824H405.209V153.032Z" fill="#FAFAFA"/>
<path d="M349.768 211.209C349.812 211.261 349.285 211.865 348.4 212.8C347.515 213.734 346.27 214.999 344.876 216.373C343.481 217.747 342.199 218.971 341.254 219.84C340.309 220.709 339.699 221.223 339.652 221.175C339.604 221.127 340.127 220.525 341.013 219.591C341.898 218.657 343.146 217.389 344.545 216.011C345.944 214.633 347.228 213.406 348.174 212.538C349.119 211.668 349.725 211.157 349.768 211.209Z" fill="#E0E0E0"/>
<path d="M405.21 211.067C405.262 211.023 405.866 211.55 406.801 212.435C407.736 213.321 409 214.565 410.374 215.959C411.748 217.354 412.972 218.636 413.841 219.581C414.71 220.526 415.224 221.136 415.176 221.183C415.128 221.231 414.526 220.708 413.592 219.822C412.658 218.936 411.39 217.689 410.012 216.29C408.635 214.891 407.408 213.607 406.539 212.661C405.669 211.717 405.158 211.111 405.21 211.067Z" fill="#E0E0E0"/>
<path d="M405.058 153.186C405.014 153.134 405.541 152.53 406.426 151.595C407.311 150.66 408.556 149.396 409.95 148.022C411.345 146.648 412.627 145.424 413.572 144.555C414.517 143.686 415.126 143.172 415.174 143.221C415.222 143.269 414.699 143.871 413.813 144.805C412.928 145.739 411.68 147.007 410.281 148.385C408.882 149.763 407.598 150.989 406.652 151.858C405.708 152.727 405.102 153.238 405.058 153.186Z" fill="#E0E0E0"/>
<path d="M349.617 153.328C349.565 153.372 348.961 152.845 348.026 151.96C347.092 151.075 345.827 149.83 344.453 148.436C343.079 147.041 341.855 145.759 340.986 144.814C340.117 143.869 339.603 143.259 339.652 143.212C339.7 143.164 340.301 143.687 341.236 144.572C342.17 145.457 343.438 146.705 344.816 148.104C346.194 149.503 347.42 150.788 348.289 151.733C349.158 152.679 349.668 153.284 349.617 153.328Z" fill="#E0E0E0"/>
<path d="M405.058 210.825C405.054 210.821 405.05 210.726 405.046 210.544C405.043 210.347 405.039 210.081 405.034 209.737C405.028 209.012 405.02 207.97 405.009 206.617C404.996 203.879 404.977 199.896 404.953 194.838C404.927 184.716 404.889 170.297 404.844 153.031L405.058 153.245C388.918 153.254 369.964 153.265 349.774 153.277H349.769L350.015 153.032C350.002 174.244 349.99 194.089 349.98 210.824L349.769 210.614C366.337 210.658 380.131 210.696 389.802 210.721C394.634 210.745 398.435 210.763 401.047 210.776C402.337 210.787 403.33 210.795 404.022 210.8C404.349 210.805 404.602 210.809 404.791 210.812C404.964 210.817 405.054 210.821 405.058 210.825C405.062 210.829 404.98 210.833 404.814 210.837C404.631 210.84 404.386 210.844 404.068 210.849C403.386 210.855 402.406 210.863 401.133 210.873C398.532 210.886 394.747 210.904 389.936 210.928C380.232 210.954 366.392 210.991 349.769 211.036H349.558V210.824C349.548 194.088 349.536 174.244 349.523 153.032V152.787H349.769H349.774C369.964 152.798 388.918 152.809 405.058 152.818H405.272V153.032C405.227 170.354 405.189 184.821 405.163 194.976C405.138 200.013 405.12 203.98 405.107 206.706C405.096 208.041 405.088 209.069 405.082 209.784C405.077 210.118 405.073 210.376 405.07 210.567C405.066 210.743 405.062 210.829 405.058 210.825Z" fill="#E0E0E0"/>
<path d="M386.739 172.678H368.239V191.178H386.739V172.678Z" fill="#EBEBEB"/>
<path d="M409.086 52.5216L401.479 52.5627L401.684 90.4147L409.291 90.3736L409.086 52.5216Z" fill="#E0E0E0"/>
<path d="M355.277 52.6187L335.578 52.725L335.69 73.622L355.389 73.5157L355.277 52.6187Z" fill="#EBEBEB"/>
<path d="M374.883 52.5126L355.184 52.619L355.297 73.516L374.996 73.4096L374.883 52.5126Z" fill="#F5F5F5"/>
<path d="M335.601 58.512C348.692 58.62 361.816 58.544 374.906 58.331C375.175 58.327 375.174 57.914 374.904 57.913C361.813 57.841 348.688 57.905 335.599 58.153C335.368 58.157 335.37 58.51 335.601 58.512Z" fill="#E0E0E0"/>
<path d="M359.086 73.1685L323.295 73.3618L323.387 90.3908L359.178 90.1975L359.086 73.1685Z" fill="#EBEBEB"/>
<path d="M394.708 72.9771L358.917 73.1703L359.009 90.1993L394.8 90.0061L394.708 72.9771Z" fill="#F5F5F5"/>
<path d="M323.313 78.1109C347.089 78.3799 370.949 78.1389 394.724 77.7579C394.993 77.7529 394.992 77.3409 394.722 77.3389C370.944 77.2129 347.083 77.2279 323.311 77.7509C323.081 77.7569 323.082 78.1089 323.313 78.1109Z" fill="#E0E0E0"/>
<path d="M448.592 90.404H309.929V96.505H448.592V90.404Z" fill="#E0E0E0"/>
<path d="M338.26 93.338H332.631V114.155H338.26V93.338Z" fill="#E0E0E0"/>
<path d="M422.289 93.338H416.66V114.155H422.289V93.338Z" fill="#E0E0E0"/>
<path d="M416.51 38.4008L408.903 38.4419L409.184 90.5019L416.791 90.4608L416.51 38.4008Z" fill="#EBEBEB"/>
<path d="M428.395 48.1013L416.575 48.1651L416.803 90.3541L428.623 90.2903L428.395 48.1013Z" fill="#F5F5F5"/>
<path d="M428.308 56.24C428.308 56.353 425.662 56.445 422.398 56.445C419.133 56.445 416.488 56.353 416.488 56.24C416.488 56.127 419.134 56.035 422.398 56.035C425.662 56.035 428.308 56.127 428.308 56.24Z" fill="#E0E0E0"/>
<path d="M428.308 54.4679C428.308 54.5809 425.662 54.6729 422.398 54.6729C419.133 54.6729 416.488 54.5809 416.488 54.4679C416.488 54.3549 419.134 54.2629 422.398 54.2629C425.662 54.2629 428.308 54.3549 428.308 54.4679Z" fill="#E0E0E0"/>
<path d="M428.308 83.953C428.308 84.066 425.662 84.158 422.398 84.158C419.133 84.158 416.488 84.066 416.488 83.953C416.488 83.84 419.134 83.748 422.398 83.748C425.662 83.748 428.308 83.84 428.308 83.953Z" fill="#E0E0E0"/>
<path d="M428.308 82.181C428.308 82.294 425.662 82.386 422.398 82.386C419.133 82.386 416.488 82.294 416.488 82.181C416.488 82.068 419.134 81.976 422.398 81.976C425.662 81.976 428.308 82.068 428.308 82.181Z" fill="#E0E0E0"/>
<path d="M422.589 78.314C422.476 78.314 422.384 74.058 422.384 68.808C422.384 63.557 422.476 59.301 422.589 59.301C422.702 59.301 422.794 63.557 422.794 68.808C422.794 74.058 422.702 78.314 422.589 78.314Z" fill="#E0E0E0"/>
<path d="M441.303 58.472H428.437V90.316H441.303V58.472Z" fill="#EBEBEB"/>
<path d="M414.773 47.31C414.773 48.518 413.794 49.496 412.587 49.496C411.38 49.496 410.401 48.517 410.401 47.31C410.401 46.103 411.38 45.123 412.587 45.123C413.794 45.123 414.773 46.102 414.773 47.31Z" fill="#E0E0E0"/>
<path d="M413.263 53.323H411.911V84.293H413.263V53.323Z" fill="#E0E0E0"/>
<path d="M475.585 463.088C475.585 463.232 381.106 463.348 264.587 463.348C148.028 463.348 53.569 463.231 53.569 463.088C53.569 462.944 148.028 462.828 264.587 462.828C381.106 462.828 475.585 462.944 475.585 463.088Z" fill="#263238"/>
<path d="M301.591 328.781C301.591 328.781 291.825 319.67 289.999 319.116C288.173 318.562 273.818 318.766 272.872 319.515C271.926 320.265 257.663 328.706 260.109 329.848C262.554 330.989 272.443 324.955 272.443 324.955L274.144 325.123C274.144 325.123 265.512 330.102 264.005 331.961C262.617 333.672 264.062 335.619 265.679 334.801C267.296 333.983 274.692 329.383 275.292 329.529C275.892 329.676 267.427 335.006 266.664 335.966C265.637 337.258 266.406 339.668 268.037 338.912C268.998 338.466 276.788 332.93 276.788 332.93C276.788 332.93 270.944 338.191 270.542 339.032C269.883 340.409 271.274 341.588 272.633 340.693C273.566 340.078 277.525 335.92 278.776 335.1C278.776 335.1 280.182 334.954 282.326 337.092C284.47 339.23 300.499 346.442 300.499 346.442L301.591 328.781Z" fill="#FFBE9D"/>
<path d="M298.162 330.271C297.562 331.49 295.953 331.862 294.615 331.623C293.277 331.385 292.06 330.7 290.743 330.366C286.804 329.366 282.532 331.594 278.646 330.407C278.104 330.242 277.488 329.867 277.535 329.303C277.578 328.78 278.157 328.501 278.652 328.325C282.88 326.824 287.108 325.323 291.336 323.821" fill="#FFBE9D"/>
<path d="M291.335 323.821C291.317 323.771 290.812 323.897 289.914 324.167C289.015 324.437 287.724 324.852 286.133 325.38C284.482 325.941 282.606 326.577 280.558 327.272C280.033 327.454 279.497 327.64 278.95 327.829C278.454 328.045 277.71 328.106 277.251 328.918C277.041 329.334 277.199 329.89 277.493 330.168C277.775 330.462 278.102 330.621 278.435 330.74C279.077 330.931 279.718 331.066 280.385 331.109C283.052 331.291 285.443 330.596 287.609 330.481C288.69 330.406 289.717 330.449 290.637 330.668C291.557 330.885 292.399 331.257 293.211 331.518C294.823 332.123 296.394 331.958 297.222 331.417C298.083 330.882 298.194 330.262 298.162 330.271C298.099 330.225 297.892 330.758 297.08 331.153C296.273 331.558 294.914 331.641 293.39 331.005C292.618 330.723 291.785 330.317 290.791 330.05C289.797 329.783 288.696 329.715 287.568 329.774C285.311 329.864 282.912 330.521 280.446 330.343C279.834 330.306 279.234 330.175 278.682 330.017C278.15 329.845 277.78 329.478 277.938 329.222C278.066 328.916 278.649 328.708 279.194 328.52C279.737 328.323 280.271 328.129 280.793 327.939C282.82 327.187 284.678 326.498 286.313 325.892C287.881 325.299 289.145 324.806 290.013 324.449C290.882 324.092 291.353 323.871 291.335 323.821Z" fill="#EB996E"/>
<path d="M260.154 329.875C260.16 329.967 261.354 330.004 263.228 329.58C264.162 329.366 265.259 329.026 266.422 328.509C267.538 327.933 268.744 327.266 270.014 326.568C270.948 326.045 271.849 325.541 272.701 325.064L272.523 325.114C276.799 325.017 279.892 324.835 279.892 324.662C279.893 324.489 276.796 324.379 272.509 324.38H272.423L272.331 324.43C271.482 324.893 270.584 325.383 269.653 325.891C268.42 326.582 267.244 327.24 266.124 327.867C265.02 328.4 263.977 328.781 263.086 329.056C261.303 329.6 260.141 329.757 260.154 329.875Z" fill="#EB996E"/>
<path d="M407.854 298.673L342.086 326.033H301.591V339.086L354.723 346.948L402.381 317.254L407.854 298.673Z" fill="#50B5E8"/>
<g opacity="0.3">
<path d="M407.854 298.673L342.086 326.033H301.591V339.086L354.723 346.948L402.381 317.254L407.854 298.673Z" fill="black"/>
</g>
<path d="M362.521 339.689C362.512 339.713 362.201 339.625 361.793 339.232C361.389 338.845 360.943 338.117 360.764 337.125C360.567 336.137 360.687 334.953 360.664 333.698C360.644 332.437 360.466 331.053 360.088 329.646C359.342 326.82 357.91 324.525 356.687 323.06C355.472 321.572 354.502 320.849 354.565 320.773C354.587 320.745 354.839 320.909 355.279 321.235C355.708 321.572 356.31 322.091 356.966 322.82C358.288 324.254 359.82 326.593 360.591 329.511C360.981 330.962 361.15 332.395 361.144 333.695C361.138 334.999 360.986 336.133 361.128 337.067C361.25 337.998 361.611 338.694 361.943 339.095C362.276 339.502 362.545 339.651 362.521 339.689Z" fill="#FAFAFA"/>
<path d="M386.657 325.415C386.634 325.469 385.707 325.15 384.328 324.375C382.951 323.604 381.151 322.326 379.471 320.583C377.795 318.835 376.588 316.986 375.873 315.58C375.153 314.172 374.871 313.233 374.925 313.212C375.08 313.126 376.523 316.804 379.846 320.221C383.129 323.677 386.749 325.264 386.657 325.415Z" fill="#FAFAFA"/>
<path d="M345.919 344.946C345.825 344.896 346.703 344.048 346.841 342.262C346.914 341.387 346.798 340.324 346.433 339.217C346.069 338.109 345.436 336.965 344.742 335.778C344.047 334.588 343.369 333.438 342.929 332.292C342.49 331.15 342.29 330.045 342.302 329.113C342.314 328.18 342.525 327.438 342.749 326.972C342.972 326.503 343.171 326.291 343.192 326.305C343.289 326.341 342.591 327.319 342.671 329.107C342.706 329.987 342.931 331.03 343.376 332.114C343.819 333.199 344.494 334.321 345.193 335.514C345.89 336.709 346.531 337.89 346.891 339.07C347.25 340.246 347.333 341.375 347.208 342.3C347.083 343.227 346.763 343.935 346.467 344.36C346.171 344.79 345.937 344.963 345.919 344.946Z" fill="#FAFAFA"/>
<path d="M321.53 338.145C321.43 338.22 320.187 335.631 320.342 332.187C320.461 328.741 321.904 326.259 321.999 326.342C322.156 326.4 320.973 328.892 320.863 332.208C320.71 335.521 321.691 338.099 321.53 338.145Z" fill="#FAFAFA"/>
<path d="M279.845 414.091L263.416 435.732C263.416 435.732 235.902 426.301 232.476 430.005L273.292 463.367L300.274 430.698L279.845 414.091Z" fill="#455A64"/>
<path d="M277.483 444.279C278.096 445.141 277.916 446.475 277.081 447.123C276.245 447.771 274.887 447.6 274.258 446.749C273.63 445.899 273.797 444.29 274.7 443.739C275.603 443.188 277.187 443.477 277.593 444.454" fill="#E0E0E0"/>
<path d="M273.293 463.366L275.975 460.119L235.781 429.251C235.781 429.251 233.318 428.557 232.477 430.004L273.293 463.366Z" fill="#E0E0E0"/>
<path d="M262.925 434.983C262.769 435.188 263.691 436.093 264.148 437.535C264.643 438.966 264.442 440.242 264.69 440.313C264.905 440.425 265.582 438.99 264.998 437.253C264.43 435.512 263.031 434.765 262.925 434.983Z" fill="#263238"/>
<path d="M257.197 433.254C256.993 433.41 257.58 434.454 257.567 435.851C257.596 437.247 257.022 438.299 257.227 438.452C257.389 438.636 258.481 437.582 258.463 435.846C258.46 434.11 257.356 433.068 257.197 433.254Z" fill="#263238"/>
<path d="M250.577 436.391C250.723 436.582 251.815 435.812 252.195 434.303C252.586 432.795 251.998 431.597 251.778 431.694C251.531 431.766 251.658 432.846 251.327 434.081C251.025 435.322 250.395 436.21 250.577 436.391Z" fill="#263238"/>
<path d="M267.216 430.466C267.151 430.716 268.29 431.189 269.354 432.186C270.438 433.162 271.006 434.256 271.249 434.17C271.482 434.12 271.229 432.683 269.959 431.526C268.7 430.36 267.246 430.23 267.216 430.466Z" fill="#263238"/>
<path d="M270.611 426.162C270.541 426.243 271.229 427.009 272.664 427.822C273.379 428.225 274.284 428.624 275.34 428.913C275.868 429.057 276.431 429.174 277.023 429.25C277.31 429.283 277.633 429.343 278.033 429.274C278.424 429.247 278.981 428.821 278.991 428.288C279.038 427.804 278.779 427.366 278.49 427.119C278.197 426.863 277.904 426.725 277.637 426.598C277.092 426.337 276.543 426.139 276.01 425.995C274.94 425.712 273.94 425.643 273.114 425.691C271.45 425.794 270.519 426.274 270.555 426.369C270.591 426.508 271.562 426.261 273.118 426.325C273.893 426.358 274.811 426.487 275.781 426.788C276.265 426.941 276.76 427.137 277.25 427.385C277.775 427.625 278.146 427.923 278.099 428.205C278.079 428.311 278.061 428.345 277.867 428.397C277.678 428.437 277.409 428.408 277.126 428.377C276.572 428.318 276.042 428.225 275.542 428.112C274.541 427.883 273.663 427.568 272.947 427.254C271.51 426.625 270.696 426.051 270.611 426.162Z" fill="#263238"/>
<path d="M270.637 426.66C270.683 426.748 271.662 426.357 272.79 425.126C273.347 424.514 273.915 423.684 274.341 422.66C274.551 422.148 274.723 421.588 274.835 420.993C274.925 420.394 275.075 419.616 274.375 418.895C273.983 418.55 273.39 418.591 273.055 418.767C272.695 418.933 272.474 419.148 272.233 419.345C271.768 419.76 271.395 420.235 271.106 420.721C270.524 421.695 270.289 422.708 270.253 423.546C270.186 425.256 270.823 426.174 270.895 426.12C271.043 426.074 270.663 425.122 270.884 423.606C270.993 422.859 271.265 421.98 271.807 421.157C272.076 420.746 272.41 420.35 272.81 420.007C273.228 419.625 273.677 419.408 273.803 419.586C274.009 419.748 274.087 420.357 273.971 420.84C273.881 421.377 273.742 421.888 273.572 422.362C273.225 423.309 272.759 424.106 272.301 424.725C271.376 425.969 270.553 426.541 270.637 426.66Z" fill="#263238"/>
<path d="M253.451 411.765L235.655 433.744C235.655 433.744 207.338 423.037 203.653 426.779L245.029 462.815L274.163 429.707L253.451 411.765Z" fill="#455A64"/>
<path d="M250.011 443.094C250.621 444.011 250.39 445.392 249.5 446.04C248.609 446.687 247.202 446.465 246.576 445.559C245.95 444.654 246.176 442.986 247.134 442.442C248.091 441.899 249.73 442.25 250.12 443.28" fill="#E0E0E0"/>
<path d="M245.03 462.815L247.926 459.524L207.116 426.103C207.116 426.103 204.576 425.3 203.654 426.779L245.03 462.815Z" fill="#E0E0E0"/>
<path d="M235.168 432.949C234.999 433.157 235.929 434.129 236.357 435.644C236.825 437.148 236.575 438.47 236.831 438.552C237.052 438.675 237.802 437.205 237.251 435.379C236.717 433.549 235.285 432.726 235.168 432.949Z" fill="#263238"/>
<path d="M229.264 430.965C229.047 431.12 229.623 432.226 229.565 433.679C229.55 435.133 228.918 436.207 229.127 436.374C229.289 436.571 230.46 435.51 230.497 433.703C230.551 431.896 229.437 430.776 229.264 430.965Z" fill="#263238"/>
<path d="M222.276 434.012C222.422 434.215 223.582 433.451 224.027 431.892C224.483 430.336 223.911 429.07 223.678 429.164C223.419 429.231 223.516 430.359 223.131 431.633C222.777 432.915 222.093 433.818 222.276 434.012Z" fill="#263238"/>
<path d="M239.779 428.391C239.703 428.649 240.873 429.177 241.948 430.25C243.044 431.3 243.599 432.457 243.855 432.376C244.099 432.332 243.883 430.828 242.599 429.583C241.326 428.328 239.818 428.145 239.779 428.391Z" fill="#263238"/>
<path d="M243.451 424.023C243.376 424.105 244.066 424.925 245.533 425.817C246.264 426.26 247.193 426.704 248.281 427.039C248.825 427.206 249.408 427.346 250.021 427.444C250.319 427.487 250.652 427.561 251.071 427.502C251.478 427.486 252.072 427.061 252.1 426.508C252.165 426.005 251.91 425.542 251.617 425.275C251.321 424.999 251.02 424.846 250.747 424.705C250.189 424.415 249.624 424.192 249.073 424.025C247.969 423.696 246.931 423.592 246.07 423.615C244.336 423.668 243.351 424.137 243.386 424.237C243.419 424.383 244.437 424.158 246.053 424.275C246.858 424.334 247.809 424.499 248.808 424.843C249.306 425.018 249.815 425.238 250.317 425.512C250.856 425.779 251.231 426.1 251.174 426.393C251.15 426.503 251.13 426.537 250.926 426.586C250.728 426.622 250.45 426.583 250.156 426.541C249.582 426.461 249.033 426.348 248.516 426.213C247.482 425.942 246.579 425.586 245.844 425.236C244.371 424.534 243.543 423.91 243.451 424.023Z" fill="#263238"/>
<path d="M243.462 424.542C243.506 424.635 244.538 424.261 245.752 423.016C246.352 422.397 246.969 421.552 247.445 420.501C247.68 419.975 247.877 419.399 248.013 418.783C248.127 418.163 248.308 417.358 247.603 416.586C247.207 416.214 246.588 416.238 246.234 416.41C245.854 416.571 245.617 416.787 245.36 416.984C244.863 417.401 244.459 417.883 244.143 418.378C243.506 419.372 243.228 420.419 243.164 421.289C243.039 423.066 243.672 424.041 243.748 423.988C243.904 423.945 243.539 422.942 243.818 421.373C243.955 420.6 244.268 419.694 244.858 418.855C245.151 418.437 245.511 418.035 245.939 417.691C246.386 417.307 246.861 417.096 246.986 417.285C247.195 417.461 247.256 418.097 247.12 418.595C247.009 419.151 246.848 419.678 246.655 420.165C246.263 421.139 245.753 421.953 245.256 422.582C244.254 423.847 243.379 424.415 243.462 424.542Z" fill="#263238"/>
<path d="M366.575 228.523C370.612 225.564 376.734 227.966 381.055 225.439C383.679 223.905 385.02 220.913 387.038 218.639C390.054 215.239 395.235 213.052 399.739 213.66C404.243 214.267 407.434 215.482 409.441 219.56C412.226 216.346 419.567 218.703 423.022 222.242C426.477 225.782 427.506 230.329 427.965 235.254C428.754 243.734 427.857 252.367 425.342 260.504C425.119 261.225 424.666 262.094 423.916 262.016C423.397 261.962 423.058 261.46 422.81 261C420.698 257.086 419.747 252.673 418.646 248.364C417.545 244.055 416.216 239.681 413.505 236.156C410.794 232.631 406.407 230.084 402.003 230.707C398.751 231.168 395.935 233.261 393.761 235.722C391.586 238.184 389.918 241.045 387.945 243.671C385.972 246.298 383.589 248.763 380.538 249.979C377.486 251.195 373.653 250.894 371.353 248.548C369.053 246.202 369.143 241.698 371.953 239.996C369.078 240.712 365.803 239.153 364.546 236.47C363.288 233.788 364.186 230.274 366.575 228.523Z" fill="#263238"/>
<path d="M405.875 296.343L403.182 287.218C403.182 287.218 390.567 289.078 386.688 277.092C384.815 271.304 381.928 259.073 379.443 247.972C376.771 236.033 383.713 224.044 395.398 220.421L396.559 220.061C409.304 216.911 419.1 225.976 421.896 238.803L435.763 287.696C438.097 295.925 433.35 304.494 425.137 306.88C416.91 309.27 408.299 304.56 405.875 296.343Z" fill="#FFBE9D"/>
<path d="M403.165 287.215C403.165 287.215 410.961 285.476 417.469 277.893C417.469 277.893 416.446 287.702 404.104 290.341L403.165 287.215Z" fill="#EB996E"/>
<path d="M384.648 256.325C384.897 257.242 385.879 257.788 386.842 257.545C387.803 257.302 388.382 256.364 388.133 255.447C387.884 254.53 386.901 253.983 385.94 254.226C384.977 254.468 384.398 255.408 384.648 256.325Z" fill="#263238"/>
<path d="M383.854 253.051C384.136 253.209 385.139 251.842 386.99 251.273C388.83 250.679 390.482 251.209 390.612 250.921C390.68 250.79 390.337 250.453 389.613 250.206C388.898 249.958 387.777 249.849 386.627 250.211C385.477 250.575 384.64 251.299 384.217 251.906C383.785 252.518 383.718 252.983 383.854 253.051Z" fill="#263238"/>
<path d="M402.52 251.114C402.769 252.031 403.752 252.577 404.714 252.334C405.675 252.092 406.254 251.153 406.005 250.236C405.756 249.319 404.773 248.773 403.812 249.015C402.849 249.257 402.27 250.197 402.52 251.114Z" fill="#263238"/>
<path d="M402.136 247.761C402.419 247.919 403.424 246.552 405.273 245.984C407.113 245.39 408.765 245.92 408.896 245.631C408.963 245.5 408.623 245.163 407.896 244.917C407.182 244.669 406.061 244.56 404.91 244.921C403.76 245.285 402.923 246.009 402.5 246.616C402.069 247.228 402 247.693 402.136 247.761Z" fill="#263238"/>
<path d="M399.677 263.554C399.653 263.446 398.442 263.604 396.506 263.943C396.019 264.041 395.543 264.086 395.363 263.788C395.146 263.481 395.186 262.911 395.244 262.291C395.334 261.011 395.427 259.669 395.526 258.263C395.878 252.543 395.977 247.899 395.746 247.886C395.515 247.874 395.043 252.501 394.691 258.221C394.616 259.628 394.542 260.97 394.475 262.252C394.463 262.844 394.344 263.548 394.805 264.181C395.041 264.494 395.467 264.643 395.795 264.631C396.126 264.629 396.394 264.552 396.631 264.494C398.537 264.013 399.702 263.661 399.677 263.554Z" fill="#263238"/>
<path d="M405.515 263.146C405.209 263.222 405.827 265.23 404.551 267.187C403.279 269.148 401.07 269.586 401.141 269.871C401.152 270.005 401.739 270.113 402.649 269.858C403.544 269.614 404.749 268.928 405.531 267.731C406.308 266.532 406.397 265.227 406.211 264.383C406.027 263.52 405.649 263.092 405.515 263.146Z" fill="#263238"/>
<path d="M399.015 238.344C399.353 238.79 401.126 237.979 403.376 237.569C405.618 237.112 407.565 237.205 407.713 236.665C407.774 236.409 407.323 236.031 406.465 235.763C405.613 235.495 404.351 235.379 403.004 235.638C401.658 235.9 400.529 236.476 399.839 237.042C399.141 237.61 398.862 238.13 399.015 238.344Z" fill="#263238"/>
<path d="M382.874 247.489C383.33 247.808 384.468 246.977 385.994 246.482C387.502 245.933 388.91 245.887 389.072 245.355C389.137 245.101 388.802 244.744 388.112 244.522C387.431 244.299 386.396 244.265 385.354 244.623C384.312 244.983 383.518 245.646 383.118 246.241C382.711 246.841 382.668 247.329 382.874 247.489Z" fill="#263238"/>
<path d="M423.676 248.016C423.854 247.864 431.185 243.008 433.473 251.315C435.761 259.622 426.948 260.205 426.868 259.971C426.788 259.737 423.676 248.016 423.676 248.016Z" fill="#FFBE9D"/>
<path d="M428.539 256.126C428.568 256.089 428.712 256.187 428.987 256.232C429.255 256.275 429.686 256.238 430.075 255.956C430.864 255.392 431.219 253.795 430.847 252.287C430.66 251.525 430.303 250.849 429.871 250.327C429.45 249.789 428.94 249.473 428.476 249.516C428.008 249.535 427.768 249.886 427.731 250.148C427.684 250.411 427.782 250.562 427.742 250.589C427.725 250.616 427.525 250.499 427.498 250.137C427.487 249.963 427.53 249.74 427.682 249.527C427.837 249.31 428.107 249.147 428.424 249.095C429.077 248.963 429.816 249.393 430.291 249.967C430.802 250.533 431.22 251.289 431.43 252.144C431.838 253.833 431.412 255.635 430.307 256.313C429.765 256.627 429.229 256.585 428.923 256.458C428.609 256.322 428.515 256.149 428.539 256.126Z" fill="#EB996E"/>
<path d="M376.116 246.239C381.853 246.007 387.392 242.819 390.475 237.975C392.632 234.586 393.785 230.318 397.102 228.052C399.335 226.526 402.244 226.209 404.893 226.757C407.542 227.305 409.965 228.645 412.173 230.208C411.744 237.044 415.422 243.385 418.973 249.242C419.365 249.889 419.809 250.58 420.519 250.843C421.724 251.29 423 250.253 423.573 249.103C424.49 247.261 424.395 245.09 424.142 243.047C423.566 238.395 422.261 233.793 419.926 229.728C417.591 225.664 414.186 222.153 409.99 220.063C404.747 217.451 398.456 217.203 392.888 219.024C387.32 220.845 382.487 224.646 379.067 229.402C377.48 231.608 376.158 234.091 375.82 236.788" fill="#263238"/>
<path d="M364.02 232.493C364.02 232.493 364.05 232.761 364.315 233.183C364.574 233.599 365.104 234.167 365.99 234.523C366.872 234.886 368.088 234.935 369.382 234.595C370.029 234.426 370.707 234.195 371.384 233.836C372.052 233.474 372.728 232.965 373.179 232.215C373.617 231.483 373.848 230.496 373.487 229.574C373.126 228.635 372.105 228.065 371.089 228.016C370.576 227.985 370.043 228.068 369.551 228.286C369.059 228.505 368.626 228.892 368.335 229.358C367.728 230.298 367.663 231.525 368.002 232.614C368.337 233.723 369.183 234.672 370.235 235.23C371.289 235.798 372.514 236.038 373.74 235.997C376.216 235.917 378.591 234.706 380.532 233.053C382.502 231.4 384.046 229.412 385.479 227.503C386.918 225.596 388.316 223.762 389.904 222.27C391.477 220.77 393.276 219.667 395.13 219.142C396.984 218.616 398.827 218.612 400.443 218.88C403.707 219.44 406.012 221.011 407.439 222.148C408.161 222.728 408.679 223.229 409.026 223.572C409.373 223.915 409.551 224.101 409.564 224.09C409.569 224.085 409.532 224.033 409.452 223.935C409.372 223.839 409.255 223.692 409.088 223.513C408.76 223.149 408.257 222.626 407.545 222.021C406.138 220.835 403.829 219.197 400.495 218.583C398.845 218.29 396.954 218.274 395.035 218.802C393.114 219.328 391.248 220.46 389.636 221.983C388.008 223.498 386.59 225.348 385.146 227.251C383.709 229.155 382.184 231.11 380.257 232.726C378.359 234.342 376.078 235.497 373.725 235.578C372.565 235.62 371.407 235.394 370.429 234.87C369.448 234.35 368.689 233.501 368.377 232.493C368.063 231.499 368.122 230.385 368.653 229.557C369.153 228.702 370.15 228.307 371.07 228.368C371.988 228.407 372.872 228.904 373.182 229.696C373.504 230.485 373.317 231.382 372.92 232.061C372.518 232.75 371.89 233.243 371.254 233.598C370.612 233.951 369.948 234.19 369.322 234.364C368.068 234.716 366.903 234.691 366.05 234.367C365.19 234.049 364.661 233.524 364.387 233.135C364.105 232.741 364.043 232.483 364.02 232.493Z" fill="#455A64"/>
<path d="M426.685 228.873C426.626 228.797 425.909 229.628 424.375 230.304C423.61 230.629 422.632 230.868 421.53 230.872C420.431 230.89 419.208 230.693 417.985 230.344C415.529 229.607 413.755 227.935 412.801 226.58C411.825 225.208 411.542 224.17 411.464 224.201C411.439 224.209 411.49 224.47 411.642 224.926C411.799 225.38 412.081 226.023 412.552 226.75C413.47 228.19 415.286 229.979 417.862 230.752C419.134 231.115 420.385 231.304 421.539 231.265C422.69 231.239 423.717 230.955 424.499 230.579C425.283 230.197 425.84 229.761 426.189 229.431C426.538 229.1 426.703 228.89 426.685 228.873Z" fill="#455A64"/>
<path d="M428.171 234.938C428.136 234.867 427.243 235.378 425.664 235.772C424.102 236.171 421.796 236.364 419.419 235.673C417.042 234.979 415.2 233.579 414.097 232.403C412.977 231.223 412.497 230.312 412.43 230.354C412.407 230.366 412.503 230.605 412.729 231.01C412.954 231.415 413.329 231.977 413.874 232.607C414.947 233.865 416.828 235.363 419.3 236.084C421.771 236.803 424.162 236.55 425.743 236.065C426.541 235.826 427.159 235.553 427.566 235.332C427.975 235.11 428.184 234.96 428.171 234.938Z" fill="#455A64"/>
<path d="M410.717 253.717C410.834 253.705 410.919 253.591 410.905 253.463C410.892 253.335 410.786 253.241 410.669 253.253C410.552 253.265 410.468 253.379 410.481 253.507C410.494 253.635 410.6 253.73 410.717 253.717Z" fill="#EB996E"/>
<path d="M406.936 254.011C407.053 253.999 407.136 253.87 407.121 253.723C407.106 253.576 406.998 253.466 406.881 253.479C406.764 253.491 406.681 253.62 406.696 253.767C406.711 253.914 406.819 254.023 406.936 254.011Z" fill="#EB996E"/>
<path d="M404.539 254.69C404.655 254.669 404.722 254.499 404.688 254.309C404.654 254.119 404.533 253.982 404.417 254.003C404.301 254.023 404.234 254.194 404.268 254.384C404.301 254.574 404.423 254.711 404.539 254.69Z" fill="#EB996E"/>
<path d="M409.668 256.473C409.781 256.438 409.854 256.351 409.831 256.279C409.809 256.207 409.699 256.177 409.587 256.212C409.474 256.247 409.401 256.334 409.424 256.406C409.446 256.478 409.555 256.508 409.668 256.473Z" fill="#EB996E"/>
<path d="M406.195 256.726C406.31 256.701 406.38 256.575 406.352 256.444C406.324 256.313 406.207 256.227 406.092 256.253C405.977 256.278 405.907 256.404 405.935 256.535C405.963 256.665 406.079 256.751 406.195 256.726Z" fill="#EB996E"/>
<path d="M388.709 259.941C388.826 259.929 388.91 259.812 388.896 259.679C388.882 259.547 388.776 259.449 388.659 259.461C388.542 259.473 388.458 259.59 388.472 259.723C388.486 259.856 388.592 259.953 388.709 259.941Z" fill="#EB996E"/>
<path d="M386.233 260.467C386.349 260.443 386.418 260.306 386.388 260.161C386.358 260.015 386.24 259.917 386.125 259.94C386.009 259.964 385.94 260.101 385.97 260.247C386 260.392 386.118 260.491 386.233 260.467Z" fill="#EB996E"/>
<path d="M390.854 259.341C390.971 259.329 391.058 259.235 391.047 259.132C391.036 259.029 390.932 258.955 390.815 258.968C390.698 258.98 390.611 259.073 390.622 259.176C390.633 259.28 390.737 259.354 390.854 259.341Z" fill="#EB996E"/>
<path d="M389.816 262.302C389.933 262.316 390.041 262.217 390.056 262.081C390.072 261.946 389.989 261.825 389.872 261.811C389.755 261.797 389.647 261.896 389.632 262.032C389.616 262.168 389.699 262.289 389.816 262.302Z" fill="#EB996E"/>
<path d="M387.632 262.529C387.731 262.466 387.769 262.346 387.716 262.263C387.663 262.179 387.539 262.163 387.439 262.226C387.34 262.289 387.302 262.408 387.356 262.492C387.409 262.576 387.533 262.592 387.632 262.529Z" fill="#EB996E"/>
<path d="M251.237 321.328L270.112 332.51L277.878 334.951L269.207 324.684L254.016 316.433C252.668 315.701 250.981 316.183 250.224 317.517C249.467 318.852 249.917 320.547 251.237 321.328Z" fill="#263238"/>
<path d="M323.172 336.81C322.389 336.901 297.633 338.112 296.959 336.867C296.286 335.622 296.144 332.035 291.292 331.273C286.44 330.511 281.395 329.42 281.395 329.42L268.434 322.811C268.434 322.811 265.2 324.304 268.652 327.551C270.867 329.634 272.846 330.965 274.871 332.368C276.079 333.205 274.548 334.252 274.548 334.252L256.159 324.23C256.159 324.23 256.903 328.378 260.52 332.194L263.233 335.056C263.233 335.056 262.089 338.893 265.846 341.634C269.603 344.375 275.953 351.807 281.728 351.404C287.503 351.001 291.574 350.937 291.574 350.937L321.815 354.719L323.172 336.81Z" fill="#FFBE9D"/>
<path d="M323.172 336.81C323.177 336.805 323.174 336.902 323.164 337.099C323.151 337.318 323.134 337.609 323.111 337.984C323.058 338.796 322.982 339.96 322.883 341.464C322.669 344.559 322.359 349.05 321.966 354.731L321.955 354.888L321.797 354.869C313.936 353.905 303.575 352.635 291.547 351.161L291.578 351.163C288.871 351.295 286.07 351.432 283.184 351.573C282.46 351.603 281.748 351.662 280.977 351.635C280.221 351.611 279.466 351.461 278.744 351.229C277.292 350.77 275.942 350.022 274.661 349.174C272.091 347.468 269.806 345.299 267.405 343.223C266.804 342.698 266.19 342.215 265.55 341.722C264.883 341.23 264.304 340.605 263.838 339.902C262.91 338.48 262.579 336.688 262.986 334.982L263.046 335.233C262.367 334.517 261.679 333.792 260.983 333.058C260.287 332.335 259.575 331.564 258.952 330.727C257.698 329.054 256.711 327.137 256.101 325.075C256.027 324.811 255.957 324.555 255.903 324.275L255.798 323.736L256.283 324.001C262.607 327.45 268.764 330.808 274.668 334.028L274.403 334.041C274.645 333.865 274.885 333.621 275.008 333.376C275.128 333.123 275.091 332.915 274.897 332.717C274.433 332.346 273.796 331.942 273.259 331.554C272.14 330.77 271.048 329.96 270.018 329.094C269.019 328.21 267.932 327.395 267.226 326.18C266.893 325.588 266.677 324.823 266.927 324.117C267.171 323.415 267.707 322.916 268.33 322.591L268.43 322.539L268.54 322.595C273.092 324.924 277.414 327.136 281.492 329.223L281.439 329.204C284.757 329.832 287.934 330.433 290.954 331.004C292.471 331.235 294.037 331.735 295.097 332.843C295.63 333.379 296.028 334.021 296.318 334.682C296.613 335.338 296.789 336.037 297.045 336.635C297.131 336.827 297.133 336.795 297.306 336.866C297.437 336.923 297.615 336.94 297.767 336.98C298.092 337.031 298.419 337.071 298.747 337.099C299.402 337.155 300.05 337.189 300.687 337.211C301.961 337.256 303.192 337.267 304.374 337.269C306.739 337.27 308.91 337.231 310.87 337.188C314.79 337.099 317.864 336.987 319.959 336.913C320.989 336.876 321.786 336.847 322.349 336.827C322.605 336.819 322.805 336.812 322.961 336.807C323.105 336.805 323.179 336.807 323.172 336.81C323.165 336.813 323.1 336.829 322.967 336.843C322.811 336.857 322.612 336.874 322.356 336.896C321.793 336.932 320.997 336.982 319.968 337.048C317.875 337.164 314.801 337.317 310.88 337.444C308.919 337.506 306.747 337.562 304.378 337.579C303.193 337.585 301.96 337.583 300.679 337.546C300.038 337.528 299.386 337.498 298.72 337.445C298.388 337.419 298.051 337.38 297.711 337.328C297.537 337.284 297.372 337.274 297.188 337.2C297.029 337.191 296.738 336.933 296.724 336.786C296.439 336.126 296.273 335.466 295.984 334.833C295.703 334.203 295.327 333.608 294.83 333.113C293.839 332.091 292.39 331.624 290.894 331.402C287.864 330.841 284.677 330.251 281.349 329.634L281.324 329.629L281.296 329.615C277.213 327.54 272.884 325.34 268.326 323.024L268.535 323.028C268.035 323.289 267.563 323.737 267.39 324.271C267.199 324.808 267.361 325.416 267.657 325.945C268.27 327.016 269.346 327.846 270.34 328.715C271.357 329.567 272.437 330.366 273.551 331.144C274.117 331.555 274.652 331.872 275.259 332.362C275.399 332.516 275.54 332.703 275.574 332.944C275.611 333.178 275.557 333.409 275.468 333.597C275.274 333.969 275.009 334.228 274.694 334.461L274.571 334.552L274.429 334.475C268.522 331.258 262.363 327.904 256.037 324.459L256.418 324.184C256.464 324.423 256.534 324.683 256.604 324.932C257.192 326.921 258.153 328.792 259.371 330.417C259.979 331.234 260.656 331.969 261.361 332.703C262.056 333.437 262.744 334.163 263.422 334.879L263.518 334.98L263.482 335.13C263.122 336.638 263.414 338.332 264.269 339.624C264.698 340.271 265.232 340.853 265.86 341.317C266.493 341.806 267.138 342.314 267.736 342.839C270.148 344.932 272.414 347.086 274.935 348.765C276.19 349.6 277.503 350.328 278.889 350.769C279.579 350.992 280.291 351.134 280.996 351.158C281.692 351.187 282.435 351.131 283.155 351.102C286.048 350.969 288.857 350.84 291.571 350.715L291.584 350.714L291.602 350.716C303.623 352.249 313.977 353.57 321.833 354.573L321.665 354.71C322.129 349.077 322.495 344.624 322.748 341.555C322.878 340.037 322.979 338.861 323.049 338.042C323.084 337.655 323.112 337.356 323.132 337.13C323.155 336.923 323.167 336.815 323.172 336.81Z" fill="#EB996E"/>
<path d="M262.3 333.964C262.21 334.115 264.262 335.511 266.883 337.083C269.505 338.656 271.703 339.808 271.793 339.657C271.883 339.506 269.832 338.11 267.21 336.538C264.588 334.966 262.39 333.813 262.3 333.964Z" fill="#EB996E"/>
<path d="M267.046 415.495C266.159 414.008 299.224 436.873 299.224 436.873L330.384 402.273L388.6 460.954L393.438 436.085L402.273 381.772L352.619 332.357C352.619 332.357 344.367 324.287 331.846 331.373C321.582 337.181 267.046 415.495 267.046 415.495Z" fill="#263238"/>
<path d="M238.503 421.119L297.709 344.899C297.709 344.899 313.467 330.009 329.979 334.549C339.818 337.254 395.795 391.878 395.795 391.878L413.199 398.938L439.773 444.524C439.773 444.524 406.345 474.928 382.017 457.326C359.198 440.816 319.029 388.546 319.029 388.546L269.11 443.224L238.503 421.119Z" fill="#263238"/>
<path d="M357.458 434.231C357.452 434.237 357.377 434.167 357.237 434.026C357.08 433.864 356.877 433.653 356.622 433.388C356.077 432.829 355.311 431.97 354.319 430.864C352.346 428.641 349.521 425.382 346.048 421.296C339.101 413.124 329.529 401.672 318.832 388.711L319.226 388.718C317.708 390.431 316.1 392.245 314.471 394.083C302.197 407.886 290.952 420.261 282.693 429.109C278.571 433.54 275.184 437.077 272.831 439.51C271.66 440.696 270.742 441.626 270.093 442.283C269.792 442.58 269.553 442.815 269.371 442.994C269.206 443.152 269.119 443.23 269.112 443.224C269.106 443.218 269.18 443.127 269.332 442.957C269.505 442.769 269.731 442.522 270.017 442.21C270.649 441.537 271.543 440.585 272.683 439.37C275.005 436.864 278.326 433.279 282.421 428.859C290.608 419.95 301.807 407.537 314.08 393.737C315.709 391.901 317.318 390.087 318.836 388.376L319.037 388.149L319.23 388.383C329.915 401.351 339.439 412.842 346.313 421.072C349.752 425.153 352.525 428.443 354.461 430.74C355.416 431.844 356.163 432.709 356.694 433.323C356.935 433.601 357.126 433.822 357.273 433.993C357.401 434.144 357.464 434.225 357.458 434.231Z" fill="#455A64"/>
<path d="M412.324 435.142C412.314 435.168 411.842 435.016 411.03 434.637C410.218 434.261 409.084 433.612 407.818 432.621C405.296 430.683 402.292 427.055 401.162 422.207C400.049 417.354 401.157 412.775 402.572 409.926C403.275 408.48 404.008 407.399 404.573 406.705C405.136 406.008 405.493 405.665 405.514 405.683C405.611 405.752 404.205 407.194 402.906 410.08C401.602 412.915 400.589 417.381 401.669 422.089C402.765 426.791 405.635 430.359 408.051 432.334C410.484 434.359 412.38 435.037 412.324 435.142Z" fill="#455A64"/>
<path d="M363.437 361.016C363.539 360.914 370.634 367.878 379.282 376.567C387.933 385.259 394.861 392.385 394.759 392.487C394.657 392.588 387.564 385.627 378.913 376.935C370.264 368.245 363.335 361.118 363.437 361.016Z" fill="#455A64"/>
<path d="M461.281 317.258C453.355 297.884 434.367 280.489 434.367 280.489C434.367 280.489 399.728 301.265 398.554 302.044C397.38 302.823 358.294 330.589 358.294 330.589C358.294 330.589 311.056 332.165 298.434 331.872L292.853 356.479C292.853 356.479 352.336 363.817 360.128 361.869C364.115 360.872 402.98 349.41 402.98 349.41C402.98 349.41 402.028 362.616 401.393 368.449C400.367 377.875 394.611 391.492 394.611 391.492C394.611 391.492 417.635 415.749 421.158 428.372C424.681 440.995 440.239 446.866 447.578 446.572C454.917 446.278 449.339 441.288 449.339 441.288C449.339 441.288 460.51 421.578 464.326 398.388C468.141 375.198 469.207 336.633 461.281 317.258Z" fill="#50B5E8"/>
<path d="M431.639 340.255C431.645 340.272 431.396 340.372 430.918 340.547C430.392 340.733 429.693 340.98 428.819 341.289C426.994 341.928 424.344 342.821 421.06 343.899C414.493 346.057 405.388 348.939 395.288 351.975C385.184 355.01 376.003 357.642 369.339 359.478C366.008 360.399 363.305 361.119 361.433 361.601C360.533 361.823 359.814 362.001 359.271 362.134C358.775 362.248 358.512 362.299 358.508 362.281C358.504 362.264 358.757 362.178 359.245 362.032C359.78 361.875 360.491 361.666 361.38 361.405C363.289 360.851 365.96 360.075 369.239 359.123C375.876 357.197 385.037 354.509 395.138 351.476C405.235 348.441 414.354 345.616 420.947 343.548C424.205 342.525 426.859 341.692 428.756 341.096C429.643 340.826 430.351 340.61 430.885 340.447C431.373 340.305 431.633 340.238 431.639 340.255Z" fill="#263238"/>
<path d="M441.95 330.187C441.909 330.173 442.072 329.616 442.327 328.602C442.584 327.589 442.892 326.106 443.091 324.253C443.506 320.571 443.258 315.277 441.101 310.003C438.942 304.728 435.406 300.779 432.529 298.445C431.089 297.263 429.829 296.421 428.936 295.88C428.044 295.336 427.537 295.053 427.556 295.014C427.564 294.998 427.7 295.05 427.952 295.165C428.201 295.286 428.58 295.444 429.037 295.704C429.968 296.195 431.271 296.998 432.76 298.158C435.732 300.447 439.382 304.429 441.583 309.806C443.782 315.181 443.972 320.58 443.457 324.295C443.209 326.166 442.842 327.652 442.523 328.655C442.379 329.161 442.22 329.54 442.127 329.8C442.027 330.06 441.967 330.192 441.95 330.187Z" fill="#263238"/>
<path d="M431.042 432.337C431.025 432.343 430.938 432.171 430.787 431.837C430.618 431.448 430.408 430.962 430.15 430.368C429.617 429.085 428.805 427.245 427.759 424.994C426.72 422.739 425.395 420.096 423.841 417.207C422.264 414.33 420.445 411.214 418.395 408.031C416.329 404.857 414.23 401.921 412.25 399.305C410.25 396.704 408.38 394.413 406.748 392.543C405.122 390.667 403.775 389.174 402.823 388.163C402.386 387.685 402.029 387.294 401.744 386.981C401.501 386.707 401.38 386.556 401.393 386.544C401.406 386.531 401.552 386.657 401.819 386.908C402.124 387.203 402.504 387.572 402.97 388.023C403.968 388.992 405.359 390.451 407.025 392.3C408.697 394.145 410.603 396.418 412.631 399.013C414.64 401.623 416.759 404.562 418.833 407.749C420.891 410.945 422.705 414.081 424.264 416.981C425.801 419.893 427.096 422.562 428.095 424.843C429.101 427.12 429.863 428.986 430.339 430.294C430.56 430.903 430.741 431.402 430.886 431.801C431.004 432.146 431.059 432.331 431.042 432.337Z" fill="#263238"/>
<g opacity="0.3">
<path d="M438.357 424.005C437.165 421.008 434.437 418.956 431.916 416.945C421.795 408.876 413.178 399.111 404.619 389.401L426.739 421.499C427.437 423.675 428.173 427.115 429.43 429.022C430.688 430.93 432.966 432.389 435.197 431.897C438.345 431.203 439.549 427.002 438.357 424.005Z" fill="black"/>
</g>
<g opacity="0.3">
<path d="M402.602 350.592C408.833 353.304 415.903 354.609 422.48 352.897C429.057 351.185 434.959 346.045 436.336 339.39C425.076 342.535 413.817 345.68 402.557 348.826" fill="black"/>
</g>
<path d="M318.435 358.862C318.383 358.852 318.542 358.45 318.429 357.737C318.321 357.03 317.855 356.051 316.929 355.14C316.044 354.202 314.643 353.33 313.691 351.751C312.744 350.192 312.377 348.187 312.343 346.152C312.317 344.107 312.521 342.192 312.447 340.463C312.396 338.735 312.037 337.209 311.446 336.051C310.87 334.888 310.134 334.104 309.559 333.664C308.985 333.216 308.607 333.045 308.628 333.003C308.636 332.98 309.045 333.088 309.678 333.5C310.31 333.905 311.128 334.687 311.773 335.882C312.434 337.065 312.85 338.67 312.927 340.441C313.028 342.214 312.838 344.145 312.864 346.142C312.897 348.129 313.241 350.038 314.104 351.507C314.951 352.979 316.302 353.881 317.195 354.886C318.129 355.872 318.579 356.948 318.629 357.713C318.658 358.095 318.612 358.393 318.556 358.584C318.501 358.774 318.45 358.867 318.435 358.862Z" fill="#FAFAFA"/>
<path d="M345.873 330.499C345.88 330.49 346.003 330.569 346.121 330.811C346.235 331.049 346.296 331.474 346.114 331.954C345.953 332.445 345.474 332.928 344.838 333.233C344.196 333.542 343.457 333.776 342.684 334.136C341.15 334.872 339.422 336.014 337.922 337.702C336.411 339.365 335.107 341.55 334.453 344.064C333.748 346.578 334.015 349.095 334.046 351.391C334.06 352.541 334.006 353.65 333.803 354.669C333.614 355.699 333.204 356.602 332.739 357.352C331.785 358.86 330.476 359.668 329.514 359.895C329.028 359.999 328.642 360.013 328.385 359.986C328.127 359.955 327.996 359.93 327.998 359.912C327.999 359.852 328.548 359.961 329.459 359.699C330.355 359.423 331.554 358.618 332.425 357.157C332.849 356.429 333.217 355.567 333.378 354.589C333.555 353.607 333.593 352.533 333.566 351.398C333.512 349.148 333.218 346.548 333.95 343.93C334.628 341.324 335.991 339.073 337.568 337.377C339.134 335.656 340.938 334.51 342.532 333.799C343.339 333.451 344.104 333.234 344.712 332.97C345.325 332.7 345.752 332.306 345.927 331.877C346.118 331.455 346.097 331.076 346.024 330.848C345.947 330.617 345.854 330.513 345.873 330.499Z" fill="#FAFAFA"/>
<path d="M372.515 358.659C372.475 358.626 372.812 358.263 373.199 357.486C373.589 356.718 373.952 355.477 373.866 353.933C373.797 352.391 373.222 350.584 372.005 348.932C370.815 347.262 369.086 345.759 367.159 344.35C365.226 342.939 363.304 341.66 361.738 340.248C360.157 338.857 358.975 337.309 358.29 335.861C357.59 334.416 357.358 333.108 357.349 332.218C357.336 331.772 357.368 331.425 357.408 331.195C357.446 330.964 357.474 330.844 357.492 330.847C357.54 330.852 357.476 331.339 357.552 332.207C357.622 333.071 357.901 334.32 358.62 335.697C359.327 337.08 360.491 338.546 362.057 339.89C363.607 341.253 365.518 342.509 367.469 343.932C369.415 345.355 371.184 346.906 372.398 348.657C373.64 350.386 374.214 352.314 374.235 353.92C374.277 355.536 373.838 356.819 373.379 357.583C373.158 357.973 372.941 358.248 372.78 358.418C372.618 358.587 372.529 358.671 372.515 358.659Z" fill="#FAFAFA"/>
<path d="M410.842 344.118C410.789 344.093 411.147 343.504 411.419 342.327C411.701 341.163 411.754 339.354 411.055 337.316C410.389 335.27 408.854 333.098 406.527 331.445C404.22 329.762 401.256 328.585 398.08 327.651C395.531 326.898 393.031 326.278 390.755 325.475C388.478 324.687 386.424 323.702 384.793 322.515C383.152 321.345 381.92 320.023 381.119 318.794C380.303 317.569 379.915 316.46 379.722 315.71L379.826 315.765C378.963 316.013 378.545 316.117 378.536 316.089C378.527 316.062 378.928 315.905 379.776 315.608L379.853 315.581L379.88 315.663C380.119 316.387 380.544 317.451 381.373 318.62C382.188 319.794 383.414 321.053 385.035 322.171C386.647 323.305 388.661 324.244 390.917 325.008C393.171 325.785 395.662 326.394 398.229 327.152C401.43 328.093 404.451 329.304 406.812 331.058C409.191 332.778 410.767 335.075 411.406 337.201C412.084 339.324 411.967 341.198 411.617 342.377C411.46 342.975 411.257 343.416 411.104 343.699C410.946 343.983 410.857 344.126 410.842 344.118Z" fill="#FAFAFA"/>
<path d="M413.749 293.416C413.749 293.398 413.947 293.388 414.326 293.385C414.534 293.386 414.766 293.388 415.029 293.39C415.316 293.419 415.634 293.452 415.983 293.488C417.408 293.674 419.488 294.199 421.708 295.563C423.9 296.912 426.281 299.103 427.725 302.261C429.197 305.417 429.357 309.371 428.665 313.232C428.007 317.122 426.835 320.681 426.162 323.984C425.5 327.285 425.369 330.357 425.771 332.864C426.146 335.38 427.056 337.279 427.872 338.435C428.703 339.59 429.329 340.096 429.281 340.145C429.281 340.145 428.607 339.695 427.708 338.554C426.825 337.414 425.837 335.486 425.407 332.923C424.949 330.368 425.045 327.241 425.691 323.891C426.347 320.542 427.503 316.983 428.151 313.146C428.833 309.337 428.681 305.51 427.288 302.459C425.917 299.396 423.63 297.232 421.513 295.875C419.37 294.503 417.348 293.932 415.952 293.689C415.609 293.636 415.297 293.588 415.015 293.545C414.756 293.525 414.527 293.507 414.322 293.491C413.947 293.459 413.749 293.434 413.749 293.416Z" fill="#FAFAFA"/>
<path d="M466.1 354.38C466.043 354.452 465.481 353.582 463.898 352.867C462.355 352.133 459.738 351.76 456.769 352.637C453.767 353.45 450.814 355.797 447.569 358.316C445.933 359.573 444.131 360.836 442.07 361.797C440.013 362.75 437.745 363.453 435.362 363.782C430.59 364.485 425.893 363.609 422.123 361.888C418.332 360.22 415.096 358.375 412.11 357.522C409.144 356.617 406.579 356.587 404.885 356.915C403.177 357.223 402.332 357.743 402.307 357.678C402.307 357.678 403.117 357.093 404.846 356.716C406.558 356.32 409.185 356.294 412.213 357.168C415.265 357.992 418.55 359.822 422.311 361.447C426.044 363.12 430.61 363.951 435.289 363.267C437.621 362.945 439.84 362.261 441.854 361.335C443.869 360.402 445.64 359.175 447.279 357.933C450.527 355.447 453.554 353.079 456.668 352.282C459.729 351.427 462.424 351.871 463.984 352.684C464.388 352.865 464.703 353.106 464.99 353.286C465.249 353.506 465.477 353.681 465.64 353.845C465.957 354.186 466.114 354.369 466.1 354.38Z" fill="#FAFAFA"/>
<path d="M464.065 334.627C464.083 334.631 464.071 334.739 464.032 334.946C463.998 335.153 463.906 335.453 463.734 335.815C463.402 336.541 462.651 337.507 461.397 338.231C460.163 338.96 458.431 339.442 456.538 339.346C454.642 339.297 452.629 338.806 450.538 338.412C446.349 337.605 442.444 337.912 439.713 338.445C436.97 338.984 435.353 339.653 435.321 339.56C435.309 339.531 435.699 339.334 436.436 339.049C437.17 338.76 438.259 338.403 439.638 338.084C442.383 337.45 446.368 337.077 450.633 337.899C452.749 338.3 454.727 338.793 456.556 338.866C458.385 338.983 460.008 338.564 461.216 337.91C462.431 337.26 463.181 336.388 463.554 335.721C463.932 335.049 464.015 334.613 464.065 334.627Z" fill="#FAFAFA"/>
<path d="M458.029 312.045C458.022 312.134 457.078 312.069 455.574 312.195C454.072 312.317 452.009 312.701 449.884 313.575C447.762 314.458 446.03 315.644 444.881 316.619C443.728 317.592 443.105 318.304 443.038 318.247C442.994 318.214 443.52 317.412 444.636 316.344C445.745 315.277 447.499 314.002 449.685 313.094C451.873 312.194 454.015 311.857 455.553 311.828C457.097 311.794 458.036 311.991 458.029 312.045Z" fill="#FAFAFA"/>
<path d="M443.194 290.196C443.251 290.218 443.053 290.938 442.511 292.014C441.973 293.088 441.049 294.495 439.756 295.81C438.459 297.121 437.064 298.065 435.997 298.617C434.929 299.173 434.212 299.381 434.189 299.324C434.109 299.175 436.871 298.025 439.385 295.444C441.931 292.896 443.044 290.118 443.194 290.196Z" fill="#FAFAFA"/>
<path d="M462.833 397.56C462.815 397.562 462.76 397.314 462.671 396.842C462.625 396.591 462.573 396.301 462.513 395.97C462.418 395.624 462.312 395.235 462.195 394.804C461.672 393.08 460.674 390.579 458.574 388.097C456.52 385.62 453.369 383.126 449.272 381.875C447.23 381.253 444.975 381.015 442.659 381.239C440.34 381.448 437.981 382.027 435.574 382.659C433.165 383.288 430.797 383.939 428.437 384.222C426.083 384.53 423.779 384.519 421.614 384.283C417.281 383.767 413.533 382.397 410.657 380.817C407.768 379.237 405.713 377.509 404.408 376.227C403.74 375.598 403.278 375.054 402.966 374.687C402.652 374.321 402.494 374.124 402.508 374.112C402.522 374.1 402.706 374.275 403.044 374.616C403.381 374.959 403.863 375.477 404.548 376.079C405.886 377.307 407.956 378.972 410.832 380.491C413.696 382.011 417.402 383.322 421.668 383.805C423.8 384.023 426.063 384.024 428.372 383.715C430.686 383.431 433.031 382.784 435.444 382.154C437.855 381.521 440.244 380.936 442.616 380.729C444.984 380.506 447.324 380.762 449.412 381.414C453.613 382.726 456.803 385.309 458.86 387.862C460.962 390.421 461.923 392.988 462.392 394.749C462.496 395.197 462.599 395.592 462.667 395.938C462.709 396.275 462.745 396.57 462.777 396.826C462.831 397.306 462.851 397.558 462.833 397.56Z" fill="#FAFAFA"/>
<path d="M408.654 395.93C408.663 395.987 407.891 396.185 406.607 396.205C405.328 396.229 403.537 396.011 401.694 395.322C399.853 394.626 398.361 393.611 397.415 392.751C396.463 391.89 396.012 391.232 396.056 391.196C396.166 391.062 398.269 393.511 401.877 394.835C405.463 396.215 408.659 395.757 408.654 395.93Z" fill="#FAFAFA"/>
<path d="M456.074 426.237C456.08 426.254 455.915 426.319 455.592 426.427C455.273 426.551 454.781 426.657 454.139 426.752C452.858 426.912 450.91 426.782 448.768 425.849C446.639 424.92 444.331 423.277 442.347 420.932C440.35 418.607 438.619 415.727 436.584 412.904C435.566 411.491 434.485 410.179 433.32 409.037C432.15 407.902 430.88 406.957 429.59 406.194C427.007 404.658 424.372 403.862 422.132 403.494C417.603 402.805 414.78 403.674 414.776 403.526C414.772 403.509 414.943 403.459 415.273 403.381C415.602 403.3 416.091 403.188 416.731 403.109C418.005 402.931 419.89 402.818 422.187 403.13C424.473 403.457 427.175 404.231 429.832 405.781C431.159 406.55 432.469 407.51 433.674 408.671C434.873 409.835 435.976 411.171 437.005 412.598C439.061 415.452 440.768 418.32 442.714 420.623C444.633 422.932 446.865 424.566 448.918 425.513C450.984 426.462 452.861 426.645 454.12 426.55C455.385 426.441 456.056 426.176 456.074 426.237Z" fill="#FAFAFA"/>
<path d="M439.994 445.802C439.904 445.803 439.887 444.898 439.617 443.482C439.352 442.068 438.758 440.151 437.658 438.252C436.55 436.358 435.175 434.894 434.077 433.966C432.98 433.032 432.201 432.57 432.246 432.493C432.27 432.445 433.121 432.796 434.307 433.679C435.492 434.555 436.962 436.032 438.108 437.99C439.245 439.952 439.803 441.96 439.98 443.423C440.162 444.892 440.047 445.805 439.994 445.802Z" fill="#FAFAFA"/>
<path d="M91.39 323.055C81.746 308.304 83.152 287.23 94.671 273.89C98.246 269.75 103.242 266.151 108.693 266.618C114.274 267.096 118.77 271.882 120.468 277.22C122.166 282.557 121.577 288.34 120.58 293.851C119.183 301.568 116.845 309.464 111.492 315.195C106.138 320.927 98.273 326.815 91.39 323.055Z" fill="#E8E350"/>
<path d="M96.723 394.055C93.091 385.581 95.725 374.851 102.868 369.022C105.085 367.213 107.985 365.811 110.751 366.546C113.583 367.298 115.466 370.171 115.857 373.075C116.248 375.979 115.421 378.905 114.408 381.654C112.989 385.503 111.069 389.36 107.791 391.827C104.515 394.295 99.929 396.616 96.723 394.055Z" fill="#E8E350"/>
<path d="M73.467 388.992C76.119 375.915 69.226 361.484 57.388 355.328C53.714 353.417 49.191 352.285 45.488 354.14C41.696 356.039 39.874 360.665 40.175 364.895C40.476 369.125 42.509 373.028 44.755 376.625C47.899 381.662 51.756 386.561 57.126 389.093C62.497 391.625 69.679 393.565 73.467 388.992Z" fill="#E8E350"/>
<path d="M75.138 353.63C79.755 338.73 71.927 320.663 58.878 312.114C54.828 309.46 49.7 307.614 45.175 309.337C40.542 311.102 37.881 316.269 37.735 321.224C37.589 326.179 39.497 330.957 41.687 335.405C44.754 341.632 48.665 347.783 54.616 351.357C60.566 354.933 70.196 358.504 75.138 353.63Z" fill="#E8E350"/>
<path d="M84.411 426.46C84.389 426.462 84.338 426.213 84.26 425.738C84.179 425.195 84.076 424.507 83.95 423.66C83.886 423.201 83.817 422.7 83.741 422.158C83.635 421.608 83.521 421.017 83.4 420.386C83.158 419.115 82.907 417.663 82.49 416.087C82.298 415.294 82.098 414.465 81.889 413.603C81.639 412.749 81.378 411.862 81.11 410.944C80.613 409.094 79.879 407.182 79.191 405.144C77.664 401.12 75.767 396.779 73.439 392.39C71.067 388.023 68.498 384.041 65.988 380.544C64.67 378.844 63.481 377.175 62.215 375.738C61.599 375.007 61.004 374.3 60.43 373.619C59.827 372.969 59.247 372.344 58.692 371.745C57.609 370.527 56.537 369.515 55.612 368.611C55.154 368.161 54.724 367.739 54.324 367.347C53.914 366.984 53.535 366.65 53.188 366.343C52.552 365.769 52.035 365.303 51.627 364.936C51.274 364.609 51.096 364.428 51.109 364.411C51.123 364.394 51.328 364.541 51.707 364.837C52.135 365.181 52.679 365.618 53.348 366.157C53.708 366.452 54.1 366.775 54.525 367.123C54.937 367.505 55.38 367.915 55.854 368.354C56.807 369.238 57.906 370.233 59.015 371.437C59.583 372.03 60.176 372.649 60.792 373.293C61.378 373.97 61.986 374.673 62.614 375.4C63.906 376.831 65.116 378.497 66.456 380.199C69.007 383.698 71.608 387.696 73.995 392.091C76.338 396.508 78.231 400.885 79.737 404.944C80.415 407 81.134 408.93 81.612 410.797C81.87 411.723 82.12 412.618 82.361 413.48C82.557 414.35 82.745 415.186 82.925 415.987C83.316 417.577 83.537 419.043 83.747 420.326C83.851 420.963 83.948 421.559 84.038 422.114C84.094 422.661 84.146 423.166 84.193 423.629C84.271 424.484 84.335 425.179 84.386 425.726C84.424 426.205 84.433 426.458 84.411 426.46Z" fill="#263238"/>
<path d="M84.071 429.137C84.06 429.136 84.061 429.035 84.071 428.84C84.088 428.608 84.109 428.324 84.135 427.976C84.21 427.167 84.312 426.062 84.44 424.665C84.511 423.942 84.59 423.144 84.676 422.276C84.742 421.401 84.766 420.447 84.819 419.424C84.895 417.376 85.091 415.049 85.019 412.469C85.013 411.179 85.006 409.829 84.999 408.423C84.985 407.017 84.852 405.556 84.78 404.043C84.679 401.011 84.266 397.797 83.902 394.41C82.977 387.66 81.531 380.295 79.331 372.743C77.058 365.209 74.254 358.245 71.35 352.081C69.809 349.042 68.402 346.122 66.834 343.526C66.069 342.218 65.384 340.922 64.629 339.735C63.868 338.553 63.138 337.417 62.44 336.332C61.094 334.13 59.661 332.286 58.481 330.611C57.879 329.783 57.339 328.995 56.806 328.298C56.261 327.616 55.76 326.991 55.306 326.424C54.437 325.324 53.749 324.453 53.245 323.815C53.034 323.537 52.862 323.311 52.721 323.126C52.606 322.968 52.55 322.884 52.559 322.877C52.567 322.87 52.639 322.94 52.77 323.084C52.924 323.258 53.112 323.472 53.342 323.733C53.869 324.353 54.588 325.2 55.497 326.27C55.965 326.828 56.481 327.443 57.043 328.114C57.591 328.802 58.146 329.58 58.764 330.401C59.974 332.06 61.437 333.892 62.811 336.086C63.523 337.168 64.267 338.3 65.042 339.479C65.811 340.664 66.508 341.959 67.286 343.266C68.88 345.862 70.309 348.784 71.871 351.829C74.817 358.005 77.65 364.996 79.933 372.565C82.144 380.152 83.579 387.556 84.476 394.338C84.827 397.742 85.221 400.971 85.3 404.016C85.36 405.536 85.481 407.002 85.483 408.414C85.476 409.825 85.469 411.18 85.462 412.475C85.506 415.063 85.278 417.397 85.168 419.448C85.097 420.473 85.056 421.428 84.972 422.304C84.866 423.173 84.769 423.97 84.681 424.693C84.502 426.086 84.361 427.188 84.257 427.995C84.206 428.34 84.165 428.621 84.131 428.851C84.103 429.041 84.081 429.139 84.071 429.137Z" fill="#263238"/>
<path d="M109.178 284.432C109.187 284.438 109.145 284.531 109.055 284.707C108.944 284.915 108.807 285.169 108.64 285.481C108.238 286.199 107.687 287.181 106.991 288.424C106.637 289.065 106.212 289.759 105.803 290.55C105.405 291.351 104.974 292.217 104.513 293.145C104.048 294.077 103.551 295.071 103.026 296.123C102.523 297.189 102.046 298.341 101.514 299.535C100.998 300.737 100.417 301.979 99.883 303.303C99.369 304.636 98.835 306.023 98.282 307.457C98.006 308.175 97.725 308.905 97.44 309.647C97.185 310.4 96.926 311.165 96.664 311.941C96.14 313.494 95.602 315.092 95.05 316.731C93.006 323.341 91.069 330.702 89.433 338.519C87.85 346.35 86.738 353.882 85.918 360.755C85.215 367.64 84.695 373.856 84.553 379.091C84.42 381.706 84.393 384.074 84.385 386.154C84.351 388.234 84.344 390.025 84.392 391.489C84.412 392.913 84.428 394.04 84.439 394.862C84.438 395.216 84.436 395.505 84.435 395.74C84.431 395.938 84.423 396.04 84.412 396.04C84.401 396.04 84.387 395.94 84.37 395.743C84.354 395.508 84.335 395.221 84.311 394.867C84.271 394.045 84.215 392.919 84.145 391.495C84.058 390.03 84.03 388.237 84.03 386.153C84.005 384.069 84.001 381.697 84.105 379.075C84.19 373.828 84.665 367.595 85.338 360.69C86.128 353.798 87.225 346.243 88.813 338.391C90.453 330.553 92.413 323.174 94.494 316.553C95.056 314.912 95.605 313.312 96.139 311.757C96.407 310.98 96.672 310.215 96.932 309.461C97.223 308.719 97.51 307.988 97.792 307.27C98.358 305.836 98.906 304.45 99.432 303.116C99.979 301.793 100.574 300.551 101.105 299.352C101.652 298.159 102.145 297.011 102.663 295.948C103.206 294.9 103.718 293.91 104.199 292.982C104.678 292.06 105.125 291.2 105.539 290.405C105.965 289.621 106.407 288.933 106.778 288.3C107.519 287.081 108.104 286.117 108.532 285.413C108.721 285.114 108.876 284.87 109.001 284.671C109.108 284.508 109.169 284.426 109.178 284.432Z" fill="#263238"/>
<path d="M105.901 374.945C105.937 374.97 105.57 375.61 104.876 376.745C104.171 377.872 103.202 379.538 102.067 381.624C100.922 383.706 99.677 386.247 98.414 389.121C97.182 392.008 95.95 395.234 94.869 398.691C93.811 402.157 93.008 405.516 92.397 408.595C91.819 411.68 91.414 414.482 91.185 416.846C90.945 419.209 90.806 421.13 90.752 422.458C90.685 423.787 90.627 424.523 90.583 424.523C90.54 424.523 90.514 423.786 90.506 422.452C90.484 421.118 90.556 419.186 90.74 416.805C90.913 414.423 91.275 411.598 91.825 408.487C92.408 405.382 93.199 401.994 94.265 398.504C95.354 395.022 96.611 391.779 97.881 388.887C99.182 386.008 100.476 383.472 101.677 381.407C102.868 379.338 103.898 377.702 104.669 376.612C105.428 375.514 105.865 374.92 105.901 374.945Z" fill="#263238"/>
<path d="M65.47 419.82H107.834L102.708 463.088H70.747L65.47 419.82Z" fill="#455A64"/>
<path d="M67.016 458.418L70.615 463.088H102.708L106.409 458.567L67.016 458.418Z" fill="#263238"/>
<path d="M106.183 432.546C106.183 432.72 97.392 432.862 86.55 432.862C75.704 432.862 66.915 432.721 66.915 432.546C66.915 432.372 75.704 432.23 86.55 432.23C97.392 432.23 106.183 432.371 106.183 432.546Z" fill="#FAFAFA"/>
<path d="M106.183 435.426C106.183 435.6 97.392 435.742 86.55 435.742C75.704 435.742 66.915 435.601 66.915 435.426C66.915 435.252 75.704 435.11 86.55 435.11C97.392 435.111 106.183 435.252 106.183 435.426Z" fill="#FAFAFA"/>
<path d="M105.655 438.215C105.655 438.389 97.171 438.531 86.709 438.531C76.243 438.531 67.761 438.39 67.761 438.215C67.761 438.04 76.243 437.899 86.709 437.899C97.171 437.9 105.655 438.041 105.655 438.215Z" fill="#FAFAFA"/>
</svg>
