<svg width="144" height="50" viewBox="0 0 144 50" fill="none" xmlns="http://www.w3.org/2000/svg">
<g clip-path="url(#clip0_205_12270)">
<path d="M7.58512 36.3232H6.29914C5.81553 36.3232 5.30994 36.2572 4.79335 36.1913C4.27677 36.1253 3.76018 36.0484 3.2436 35.9495C2.75543 35.8598 2.27698 35.7236 1.81476 35.5428C1.28756 35.4009 0.82283 35.087 0.494297 34.6509C0.165764 34.2149 -0.00778592 33.6816 0.00119077 33.1357V17.7481C-0.0155436 17.5491 0.00903594 17.3487 0.0733404 17.1595C0.137645 16.9704 0.240284 16.7966 0.374886 16.649C0.672106 16.3678 1.02907 16.1574 1.41906 16.0335C2.39344 15.7181 3.39979 15.5117 4.41966 15.418C5.47481 15.3227 6.42003 15.2751 7.25536 15.2751C8.8346 15.2561 10.4082 15.4671 11.9266 15.9016C13.2484 16.2783 14.4741 16.9342 15.5207 17.8251C16.5451 18.7264 17.3433 19.8559 17.8509 21.1224C18.9263 24.1211 18.9263 27.4003 17.8509 30.3989C17.357 31.6561 16.5826 32.7839 15.5867 33.6963C14.5746 34.6038 13.3787 35.2824 12.0805 35.6857C10.6243 36.1307 9.10761 36.3458 7.58512 36.3232ZM5.73858 31.5091C5.98038 31.553 6.27714 31.5897 6.62886 31.619C6.98057 31.6483 7.31034 31.6483 7.61809 31.619C8.32061 31.6274 9.01938 31.5158 9.6844 31.2892C10.2955 31.0795 10.8488 30.7294 11.3001 30.2671C11.7977 29.7568 12.1734 29.1405 12.3992 28.4645C12.6676 27.6079 12.7938 26.7131 12.7729 25.8156C12.8944 24.2029 12.3995 22.6042 11.388 21.3422C10.9162 20.8422 10.342 20.4498 9.70466 20.1918C9.06734 19.9339 8.38185 19.8164 7.695 19.8474H6.76078L5.78255 19.9463L5.73858 31.5091Z" fill="#8D939C"/>
<path d="M38.1179 27.7831C38.1392 29.0244 37.9266 30.2585 37.4913 31.4212C37.1097 32.4369 36.5094 33.3563 35.7328 34.114C34.9524 34.852 34.0229 35.4142 33.0069 35.7627C31.8714 36.1494 30.6782 36.339 29.4788 36.3233C28.2766 36.3391 27.0815 36.138 25.9506 35.7297C24.9342 35.3613 24.0058 34.7848 23.2248 34.0371C22.4541 33.2787 21.8545 32.3643 21.4662 31.3552C20.6311 29.0659 20.6311 26.5553 21.4662 24.266C21.8542 23.2567 22.4539 22.3423 23.2248 21.5841C24.0048 20.8325 24.9332 20.2522 25.9506 19.8805C27.0814 19.472 28.2766 19.2709 29.4788 19.287C30.6821 19.269 31.8783 19.4739 33.0069 19.8915C34.0226 20.2718 34.9501 20.8552 35.7328 21.6061C36.5034 22.3645 37.103 23.2789 37.4913 24.2879C37.9196 25.4028 38.1322 26.5889 38.1179 27.7831ZM26.5771 27.7831C26.5084 28.8688 26.7813 29.9489 27.3575 30.8716C27.5994 31.2274 27.9285 31.5153 28.3133 31.7077C28.6982 31.9002 29.1259 31.9907 29.5557 31.9707C29.9761 31.9889 30.3938 31.897 30.7678 31.7042C31.1417 31.5115 31.4589 31.2245 31.688 30.8716C32.2366 29.9465 32.4968 28.8789 32.4354 27.8051C32.5 26.7366 32.2353 25.6739 31.677 24.7605C31.4271 24.4283 31.1034 24.1587 30.7315 23.973C30.3595 23.7874 29.9495 23.6907 29.5337 23.6907C29.118 23.6907 28.708 23.7874 28.336 23.973C27.9641 24.1587 27.6404 24.4283 27.3905 24.7605C26.8173 25.6615 26.5334 26.7162 26.5771 27.7831Z" fill="#8D939C"/>
<path d="M51.011 25.6399C51.0348 25.3638 50.9957 25.0858 50.8967 24.8269C50.7978 24.5681 50.6414 24.3349 50.4395 24.1451C49.9924 23.8052 49.4397 23.6339 48.8787 23.6615C48.4375 23.6612 47.9981 23.7166 47.5708 23.8263C47.1771 23.9223 46.8045 24.09 46.4717 24.321V35.7627C46.1285 35.8522 45.7797 35.9183 45.4275 35.9606C44.9431 36.027 44.4546 36.06 43.9657 36.0595C43.5277 36.0633 43.0902 36.0302 42.6577 35.9606C42.3082 35.9084 41.9765 35.7726 41.6905 35.5649C41.4167 35.3579 41.204 35.0807 41.075 34.7625C40.9185 34.3335 40.8475 33.878 40.8662 33.4216V23.5296C40.842 23.0194 40.9722 22.5138 41.2399 22.0788C41.5223 21.6768 41.8762 21.3303 42.284 21.0566C43.145 20.4763 44.0956 20.0418 45.0978 19.7706C46.3283 19.4275 47.6013 19.261 48.8787 19.276C50.9214 19.1416 52.9479 19.7162 54.6161 20.9027C55.2841 21.4484 55.8142 22.1437 56.1637 22.9323C56.5131 23.7209 56.672 24.5806 56.6275 25.442V35.7627C56.2879 35.8517 55.9428 35.9178 55.5943 35.9606C55.1099 36.027 54.6215 36.06 54.1325 36.0595C53.6945 36.0633 53.257 36.0302 52.8246 35.9606C52.4712 35.9101 52.1355 35.7743 51.8464 35.5649C51.5766 35.3565 51.3678 35.0794 51.2418 34.7625C51.0815 34.3343 51.0069 33.8787 51.022 33.4216L51.011 25.6399Z" fill="#8D939C"/>
<path d="M66.6753 19.2761C67.7851 19.2615 68.8925 19.3833 69.9726 19.6388C70.8699 19.8434 71.7203 20.2163 72.4786 20.7379C73.1626 21.2199 73.7145 21.8663 74.0833 22.6174C74.4737 23.4564 74.6655 24.3741 74.6438 25.2992V32.6853C74.6653 33.1931 74.4968 33.6908 74.1712 34.0812C73.855 34.4503 73.4844 34.769 73.0721 35.0264C71.2105 35.9829 69.1278 36.4267 67.038 36.3124C65.981 36.323 64.9263 36.2123 63.8945 35.9826C63.0404 35.7964 62.2257 35.4616 61.4874 34.9934C60.8355 34.5747 60.3019 33.9957 59.9377 33.3118C59.5607 32.5781 59.3718 31.7623 59.3881 30.9377C59.3466 30.2919 59.446 29.6448 59.6794 29.0413C59.9128 28.4378 60.2748 27.8922 60.74 27.4425C61.9438 26.5129 63.4078 25.9826 64.9277 25.9257L69.2472 25.4641V25.2333C69.2625 24.9454 69.1898 24.6597 69.0386 24.4142C68.8873 24.1687 68.6649 23.9752 68.4009 23.8594C67.6308 23.5475 66.8015 23.4087 65.9718 23.4527C65.1513 23.4512 64.3331 23.5397 63.5318 23.7165C62.781 23.8709 62.0454 24.0915 61.3336 24.3759C61.017 24.1396 60.7671 23.8254 60.6082 23.4637C60.4139 23.0706 60.3124 22.6382 60.3114 22.1997C60.2857 21.707 60.4335 21.2209 60.729 20.8258C61.0734 20.4378 61.5073 20.1398 61.9931 19.9575C62.7244 19.6933 63.4844 19.5162 64.2572 19.4299C65.0593 19.3288 65.8668 19.2774 66.6753 19.2761ZM66.9391 32.2347C67.3554 32.2332 67.7709 32.1965 68.181 32.1247C68.5343 32.0789 68.8766 31.971 69.1922 31.806V29.1681L66.8182 29.3659C66.29 29.3871 65.7726 29.5221 65.3014 29.7616C65.1205 29.8553 64.9692 29.9974 64.8644 30.1721C64.7596 30.3468 64.7054 30.5471 64.7078 30.7508C64.6986 30.9622 64.7409 31.1726 64.8308 31.364C64.9208 31.5554 65.0559 31.7222 65.2244 31.85C65.7397 32.1594 66.341 32.2943 66.9391 32.2347Z" fill="#8D939C"/>
<path d="M83.6203 30.2892C83.5981 30.5217 83.6359 30.756 83.7302 30.9696C83.8245 31.1832 83.9721 31.3691 84.1589 31.5093C84.6254 31.7777 85.1603 31.9038 85.6976 31.872C86.0401 31.8692 86.3819 31.8398 86.7198 31.784C87.0329 31.7402 87.3417 31.6704 87.6431 31.5752C87.8464 31.8213 88.0198 32.0906 88.1597 32.3775C88.3131 32.7229 88.3846 33.0991 88.3685 33.4767C88.3793 33.8661 88.3007 34.2529 88.1388 34.6073C87.9768 34.9617 87.7358 35.2743 87.4343 35.521C86.4528 36.142 85.2933 36.4203 84.1369 36.3124C82.5401 36.4157 80.9586 35.9482 79.6745 34.9934C79.1121 34.4399 78.6802 33.7679 78.4102 33.0263C78.1402 32.2848 78.0389 31.4925 78.1137 30.7069V16.5723C78.3555 16.5063 78.6999 16.4367 79.1469 16.3634C79.6229 16.2862 80.1046 16.2495 80.5868 16.2535C81.3702 16.2093 82.1505 16.3844 82.8399 16.7591C83.1533 17.0245 83.3928 17.3663 83.5353 17.7514C83.6778 18.1365 83.7184 18.5519 83.6533 18.9573V21.0677H87.9728C88.1229 21.3568 88.248 21.6583 88.3465 21.9689C88.474 22.3591 88.5371 22.7675 88.5334 23.1779C88.5924 23.7798 88.4106 24.3805 88.0278 24.8486C87.8453 25.0221 87.6293 25.1564 87.3931 25.2434C87.1568 25.3303 86.9052 25.368 86.6539 25.3542H83.6533L83.6203 30.2892Z" fill="#8D939C"/>
<path d="M99.4823 36.3233C98.2554 36.3334 97.0347 36.1478 95.8662 35.7738C94.7968 35.4328 93.8091 34.8753 92.9645 34.1361C92.1189 33.3814 91.4539 32.446 91.0191 31.3993C90.5242 30.1747 90.2849 28.8618 90.3157 27.5414C90.2817 26.2599 90.5215 24.9859 91.0191 23.8044C91.4314 22.8441 92.0467 21.9844 92.8227 21.2843C93.5987 20.5842 94.517 20.0603 95.5145 19.7487C96.4949 19.4342 97.5184 19.2748 98.548 19.276C99.6297 19.2631 100.705 19.4417 101.724 19.8036C102.632 20.128 103.471 20.6201 104.197 21.2544C104.887 21.8636 105.437 22.6131 105.813 23.4527C106.205 24.3348 106.403 25.2904 106.396 26.2554C106.42 26.5694 106.377 26.885 106.269 27.1808C106.161 27.4767 105.99 27.7458 105.769 27.9701C105.28 28.3982 104.669 28.6632 104.022 28.7284L95.8772 29.9484C95.9984 30.3076 96.1929 30.6376 96.4483 30.9176C96.7037 31.1976 97.0145 31.4215 97.361 31.5752C98.1661 31.9482 99.0458 32.1324 99.9329 32.1137C100.798 32.121 101.66 32.0063 102.494 31.773C103.178 31.592 103.836 31.3223 104.45 30.9706C104.815 31.2045 105.12 31.5207 105.341 31.8939C105.52 32.1835 105.637 32.5078 105.683 32.8457C105.728 33.1835 105.702 33.5271 105.605 33.8541C105.509 34.181 105.344 34.4838 105.122 34.7427C104.901 35.0016 104.627 35.2106 104.318 35.3561C103.576 35.7426 102.773 35.9991 101.944 36.1145C101.13 36.2447 100.307 36.3145 99.4823 36.3233ZM98.559 23.3648C98.0875 23.3534 97.619 23.4433 97.1851 23.6285C96.826 23.7823 96.5037 24.0109 96.2399 24.299C95.9993 24.5688 95.8128 24.8822 95.6903 25.2223C95.5717 25.5587 95.5013 25.9102 95.4815 26.2664L101.12 25.3432C101.02 24.8393 100.766 24.3787 100.395 24.0242C100.151 23.7934 99.8618 23.6157 99.5459 23.5022C99.23 23.3887 98.8939 23.3419 98.559 23.3648Z" fill="#8D939C"/>
<path d="M114.813 35.7627L113.714 35.9386C113.242 36.0173 112.764 36.0577 112.285 36.0595C111.847 36.0632 111.41 36.0302 110.977 35.9605C110.628 35.9083 110.296 35.7726 110.01 35.5649C109.74 35.3568 109.531 35.0796 109.405 34.7625C109.245 34.3343 109.17 33.8787 109.186 33.4216V14.297L110.285 14.1101C110.761 14.0347 111.242 13.9979 111.725 14.0002C112.159 13.9971 112.593 14.0302 113.022 14.0992C113.371 14.1514 113.703 14.2871 113.989 14.4948C114.262 14.7022 114.475 14.9794 114.604 15.2972C114.759 15.7228 114.83 16.1745 114.813 16.6271V35.7627Z" fill="#8D939C"/>
<path d="M124.047 35.7628L122.948 35.9386C122.476 36.0174 121.998 36.0579 121.519 36.0595C121.085 36.0628 120.651 36.0297 120.222 35.9606C119.869 35.9101 119.533 35.7743 119.244 35.5649C118.974 35.3565 118.766 35.0794 118.64 34.7626C118.48 34.3342 118.405 33.8787 118.42 33.4217V14.2971L119.519 14.1102C119.992 14.0353 120.469 13.9986 120.948 14.0003C121.386 13.9966 121.823 14.0297 122.256 14.0992C122.605 14.1515 122.937 14.2872 123.223 14.4949C123.493 14.7033 123.702 14.9805 123.827 15.2973C123.986 15.7222 124.061 16.1738 124.047 16.6272V35.7628Z" fill="#8D939C"/>
<path d="M144.16 27.7831C144.181 29.0244 143.969 30.2585 143.534 31.4212C143.152 32.4369 142.552 33.3563 141.775 34.114C140.995 34.852 140.065 35.4142 139.049 35.7627C137.914 36.1494 136.72 36.339 135.521 36.3233C134.319 36.3391 133.124 36.138 131.993 35.7297C130.98 35.3602 130.056 34.7837 129.278 34.0371C128.503 33.28 127.9 32.3655 127.508 31.3552C126.674 29.0658 126.674 26.5554 127.508 24.266C127.9 23.2557 128.503 22.3412 129.278 21.5841C130.055 20.8338 130.979 20.2535 131.993 19.8805C133.124 19.472 134.319 19.2709 135.521 19.287C136.724 19.269 137.921 19.4739 139.049 19.8915C140.065 20.2718 140.992 20.8552 141.775 21.6061C142.546 22.3645 143.145 23.2789 143.534 24.2879C143.962 25.4028 144.174 26.5889 144.16 27.7831ZM132.619 27.7831C132.551 28.8688 132.824 29.9489 133.4 30.8716C133.642 31.2274 133.971 31.5153 134.356 31.7077C134.74 31.9002 135.168 31.9907 135.598 31.9707C136.016 31.9869 136.432 31.8941 136.804 31.7015C137.176 31.5088 137.491 31.2228 137.719 30.8716C138.268 29.9468 138.529 28.8789 138.467 27.8051C138.531 26.7366 138.267 25.6739 137.708 24.7605C137.458 24.4283 137.135 24.1587 136.763 23.973C136.391 23.7874 135.981 23.6907 135.565 23.6907C135.149 23.6907 134.739 23.7874 134.367 23.973C133.995 24.1587 133.672 24.4283 133.422 24.7605C132.852 25.6627 132.572 26.7174 132.619 27.7831Z" fill="#8D939C"/>
</g>
<defs>
<clipPath id="clip0_205_12270">
<rect width="144" height="50" fill="white"/>
</clipPath>
</defs>
</svg>
